<?xml version="1.0" encoding="UTF-8"?><svg id="Capa_1" xmlns="http://www.w3.org/2000/svg" viewBox="0 0 230.53 230.58"><defs><style>.cls-1{fill:#fff;}</style></defs><path class="cls-1" d="M115.24,230.56H22.12c-13.52,0-22.12-8.63-22.12-22.18V46.06c0-13.47,8.3-21.96,21.83-22.22,1.59-.03,2.03-.41,1.98-2-.08-2.65-.2-5.3,.25-7.95C25.38,6.03,31.95,.18,39.92,.07,47.72-.03,55.53-.02,63.33,.07c9,.09,16.06,7.09,16.37,16.13,.07,2.06,.08,4.12,0,6.17-.04,1.11,.3,1.59,1.44,1.45,.59-.07,1.2-.01,1.8-.01h125.53c10.57,0,18.45,5.59,21.2,14.93,.61,2.07,.86,4.18,.86,6.34,0,54.79,0,109.58-.02,164.37,0,12.16-8.96,21.09-21.12,21.11-31.38,.03-62.76,0-94.15,0h0ZM60.39,87.61h-2.36c-15.78,0-31.55,.04-47.33-.05-2.04-.01-2.51,.54-2.51,2.53,.06,39.61,.04,79.23,.05,118.84,0,8.22,5.1,13.38,13.24,13.38H209c8.17,0,13.27-5.14,13.27-13.36,0-39.61,0-79.23,.05-118.84,0-1.94-.38-2.58-2.47-2.56-15.86,.1-31.72,.05-47.59,.07-.61,0-1.35-.38-1.85,.35,22.22,30.88,12.65,70.23-11.89,91.1-24.86,21.14-61.88,20.97-86.9-.13-25.46-21.46-32.78-60.34-11.23-91.34h0Zm54.83-55.56c-31.12,0-62.24,0-93.36,0-8.53,0-13.62,5.09-13.63,13.56,0,10.46,.07,20.92-.06,31.38-.03,2.13,.68,2.44,2.57,2.44,18.52-.04,37.03,0,55.55,.1,.93,0,1.44-.32,1.97-.86,11.66-11.69,25.96-17.64,42.23-18.67,19.43-1.22,36.7,4.29,50.99,17.93,1.08,1.03,2.1,1.49,3.58,1.49,18.35-.04,36.69-.06,55.04,.02,1.83,0,2.24-.48,2.22-2.25-.09-10.2-.04-20.4-.04-30.6s-4.74-14.52-14.47-14.52H115.23v-.02Zm-.06,35.83c-32.57,.05-59.58,26.49-59.16,58.84,.47,36.96,27.47,59.65,59.45,59.54,31.74-.11,58.47-22.6,59.04-59.45,.5-32.44-26.66-58.98-59.32-58.93h-.01ZM51.71,23.8c5.99,0,11.98,.01,17.97-.01,.76,0,1.83,.38,1.8-1.07-.06-2.48,.16-4.99-.17-7.43-.55-4.14-3.96-6.96-8.22-6.99-7.53-.05-15.06-.05-22.6,0-4.78,.03-8.22,3.38-8.47,8.17-.09,1.79,.09,3.6-.06,5.39-.13,1.63,.47,2.01,2.02,1.99,5.9-.08,11.81-.03,17.72-.03v-.02Z"/><path class="cls-1" d="M115.28,214.09H35.05c-.86,0-1.73,.09-2.57-.06-2.22-.4-3.56-1.79-3.57-4.04s1.32-3.65,3.53-4.07c.75-.14,1.54-.06,2.31-.06H195.71c.77,0,1.56-.08,2.31,.05,2.22,.4,3.56,1.8,3.57,4.04,0,2.24-1.32,3.66-3.53,4.07-.83,.16-1.71,.06-2.57,.06H115.28Z"/><path class="cls-1" d="M198.58,70.11c-2.05,0-4.11,.04-6.16,0-4.77-.12-8.14-3.53-8.21-8.35-.05-4.02-.06-8.04,0-12.06,.07-4.63,3.34-8.14,8.01-8.34,4.27-.18,8.56-.19,12.83,0,4.68,.22,7.88,3.71,7.95,8.39,.06,4.02,.06,8.04,0,12.06-.08,4.8-3.48,8.18-8.27,8.29-2.05,.05-4.11,0-6.16,0h.01Zm-6.2-14.06c.27,1.76-.83,4.4,.44,5.45,1.18,.98,3.72,.39,5.67,.36,2.03-.03,4.67,.88,5.91-.35,1.24-1.24,.35-3.89,.37-5.92,.05-6.06,.02-6.09-6.04-6.04-2.02,.02-4.66-.89-5.91,.38-1.24,1.27-.23,3.9-.43,6.11h-.01Z"/><path class="cls-1" d="M31.9,68.05c-6.7,0-12.24-5.57-12.25-12.3,0-6.67,5.64-12.37,12.24-12.37s12.24,5.7,12.25,12.37c0,6.72-5.55,12.3-12.24,12.3Zm.19-16.42c-2.09-.12-4.13,1.77-4.24,3.93-.12,2.2,1.65,4.15,3.85,4.24,2.22,.1,4.13-1.63,4.25-3.86,.12-2.12-1.74-4.19-3.86-4.32h0Z"/><path class="cls-1" d="M115.33,178.37c-27.95,.08-51.33-22.72-51.1-50.58,.26-30.78,22.34-51.39,50.95-51.44,28.42-.05,50.72,20.3,51.1,51.29,.34,27.84-22.92,50.65-50.95,50.73Zm.06-94.03c-23.57-.06-42.94,19.02-43,42.35-.07,24.49,18.38,43.13,42.74,43.19,24.41,.06,42.82-18.31,43.01-42.93,.18-23.24-19.2-42.55-42.75-42.61Z"/><path class="cls-1" d="M117.19,92.54c13.65,1.34,23.72,7.92,29.68,20.45,1.27,2.67,.49,4.99-1.82,6.04-2.19,.99-4.32,.08-5.59-2.53-4.61-9.48-12.08-14.83-22.64-15.64-3.66-.28-5.63-1.67-5.61-4.27,.03-2.75,2.06-4.11,5.98-4.05Z"/></svg>