<?xml version="1.0" encoding="UTF-8"?><svg id="Capa_1" xmlns="http://www.w3.org/2000/svg" viewBox="0 0 209.57 261.95"><defs><style>.cls-1{fill:#fff;}</style></defs><path class="cls-1" d="M209.57,131c0,33.19,.02,66.38,0,99.57-.02,15.09-9.41,27.12-23.78,30.57-2.48,.59-5.01,.81-7.57,.81-48.93-.01-97.85,.01-146.78-.02C13.27,261.91,.01,248.58,.01,230.37,0,164.08,0,97.79,.01,31.5,.01,13.31,13.3,.03,31.5,.02,80.33-.01,129.16,0,178,.02c18.35,0,31.54,13.26,31.56,31.68,.02,33.1,0,66.2,0,99.3h0Zm-200.83-.23v98.46c0,14.97,8.94,23.96,23.83,23.96H177.15c14.58,0,23.68-9.06,23.69-23.57V32.42c0-14.59-9.05-23.68-23.57-23.68H32.42c-14.58,0-23.68,9.05-23.68,23.56v98.46h0Z"/><path class="cls-1" d="M104.51,78.59H31.93c-9.1,0-14.45-5.31-14.46-14.33V31.8c0-8.9,5.37-14.32,14.19-14.32H177.91c8.73,0,14.17,5.39,14.19,14.05,.02,11,.02,22.01,0,33.01-.02,8.65-5.46,14.05-14.19,14.05-24.47,.01-48.93,0-73.4,0Zm.33-8.73h72.82c4.26,0,5.7-1.46,5.7-5.73V31.95c0-4.29-1.44-5.74-5.7-5.74H31.75c-4.09,0-5.56,1.48-5.56,5.59-.01,10.63,0,21.27,0,31.9,0,4.85,1.29,6.15,6.1,6.15H104.84Z"/><path class="cls-1" d="M139.72,196.31v-33.56c0-9.02,5.36-14.32,14.46-14.33,8.09,0,16.19-.03,24.28,0,8,.03,13.62,5.55,13.63,13.5,.04,23.01,.04,46.01,0,69.02,0,7.95-5.62,13.47-13.63,13.51-8.37,.04-16.73,.04-25.1,0-8.1-.03-13.62-5.61-13.64-13.77-.03-11.46,0-22.92,0-34.37Zm8.73,.14v33.8c0,3.94,1.51,5.47,5.4,5.48,8,.02,15.99,.02,23.99,0,4.05,0,5.53-1.51,5.53-5.63v-67.32c0-4.11-1.48-5.6-5.54-5.61-7.91,0-15.81,0-23.72,0-4.24,0-5.66,1.45-5.66,5.76v33.53h0Z"/><path class="cls-1" d="M43.45,139.7c-4.27,0-8.55,.05-12.82,0-7.45-.1-13.07-5.71-13.15-13.15-.06-5.82-.07-11.64,0-17.46,.1-7.28,5.73-12.94,13.01-13.01,8.73-.08,17.46-.07,26.19,0,7.44,.06,13.06,5.69,13.15,13.15,.07,5.82,.08,11.64,0,17.46-.1,7.3-5.72,12.9-13.01,13.02-4.45,.07-8.91,0-13.37,0h0Zm.29-8.74c4.09,0,8.17,.03,12.26,0,3.42-.03,5.08-1.61,5.11-4.94,.05-5.45,.05-10.89,0-16.34-.03-3.21-1.68-4.87-4.87-4.89-8.35-.04-16.71-.04-25.06,0-3.35,.02-4.95,1.66-4.97,5.06-.04,5.36-.04,10.71,0,16.07,.02,3.38,1.64,5,5.01,5.04,4.18,.04,8.35,0,12.53,0h-.01Z"/><path class="cls-1" d="M104.79,96.05c4.37,0,8.73-.05,13.1,.01,7.31,.1,12.97,5.67,13.08,12.95,.09,5.91,.09,11.82,0,17.73-.11,7.28-5.76,12.88-13.08,12.94-8.73,.08-17.46,.08-26.19,0-7.43-.07-13.01-5.74-13.09-13.22-.06-5.73-.06-11.46,0-17.19,.08-7.59,5.72-13.15,13.36-13.22,4.27-.04,8.55,0,12.82,0Zm-.05,8.73c-4.09,0-8.17-.03-12.26,0-3.54,.03-5.12,1.61-5.15,5.17-.03,5.26-.03,10.53,0,15.8,.02,3.58,1.59,5.19,5.11,5.21,8.26,.03,16.52,.03,24.78,0,3.37,0,4.99-1.66,5.01-5.03,.04-5.36,.04-10.71,0-16.07-.03-3.5-1.65-5.05-5.25-5.07-4.09-.03-8.17,0-12.26,0h.02Z"/><path class="cls-1" d="M165.97,96.05c4.27,0,8.55-.04,12.82,0,7.62,.08,13.23,5.66,13.3,13.28,.06,5.73,.06,11.46,0,17.19-.09,7.46-5.7,13.1-13.14,13.16-8.73,.07-17.46,.08-26.19,0-7.3-.07-12.93-5.71-13.02-13-.08-5.91-.09-11.82,0-17.73,.11-7.13,5.74-12.75,12.86-12.88,4.45-.09,8.91-.02,13.37-.02h0Zm-.13,34.92c4.18,0,8.35,.03,12.53,0,3.36-.04,4.97-1.67,5-5.05,.04-5.36,.04-10.71,0-16.07-.02-3.39-1.64-5.04-4.99-5.05-8.26-.04-16.52-.03-24.79,0-3.54,.01-5.11,1.62-5.13,5.18-.03,5.26-.03,10.53,0,15.8,.02,3.57,1.6,5.16,5.12,5.2,4.09,.04,8.17,0,12.26,0h0Z"/><path class="cls-1" d="M43.56,192.08c-4.27,0-8.55,.04-12.82,0-7.61-.09-13.19-5.7-13.26-13.33-.05-5.73-.06-11.46,0-17.19,.09-7.43,5.73-13.06,13.19-13.11,8.64-.06,17.28-.06,25.92,0,7.61,.05,13.18,5.68,13.26,13.32,.05,5.73,.07,11.46,0,17.19-.09,7.44-5.72,13.02-13.19,13.12-4.36,.06-8.73,0-13.1,0h0Zm.09-8.74c4.18,0,8.35,.04,12.53,0,3.22-.04,4.9-1.66,4.93-4.84,.05-5.45,.05-10.89,0-16.34-.03-3.36-1.66-4.98-5.05-4.99-8.26-.03-16.52-.03-24.79,0-3.41,0-5.04,1.62-5.07,4.97-.04,5.36-.04,10.71,0,16.07,.02,3.53,1.62,5.11,5.18,5.14,4.09,.03,8.17,0,12.26,0h.01Z"/><path class="cls-1" d="M104.48,192.08c-4.27,0-8.55,.06-12.82,0-7.31-.12-12.96-5.7-13.06-12.97-.08-5.91-.09-11.82,0-17.73,.11-7.14,5.71-12.83,12.82-12.91,8.91-.1,17.83-.11,26.74,0,7,.08,12.63,5.69,12.77,12.68,.12,6.09,.13,12.19,0,18.28-.15,6.97-5.79,12.5-12.81,12.65-4.55,.09-9.09,.02-13.64,.02h0Zm.28-8.74c4.18,0,8.35,.04,12.53,0,3.22-.04,4.9-1.66,4.93-4.84,.05-5.45,.05-10.89,0-16.34-.03-3.36-1.66-4.98-5.05-4.99-8.26-.03-16.52-.03-24.79,0-3.4,0-5.04,1.62-5.06,4.97-.04,5.36-.04,10.71,0,16.07,.02,3.53,1.63,5.11,5.19,5.13,4.09,.03,8.17,0,12.26,0h-.01Z"/><path class="cls-1" d="M43.56,244.47c-4.27,0-8.55,.04-12.82,0-7.61-.09-13.19-5.7-13.26-13.33-.05-5.73-.06-11.46,0-17.19,.09-7.43,5.73-13.06,13.19-13.11,8.64-.06,17.28-.06,25.92,0,7.61,.05,13.19,5.68,13.26,13.32,.05,5.73,.07,11.46,0,17.19-.09,7.44-5.72,13.02-13.19,13.12-4.36,.06-8.73,0-13.1,0h0Zm-.18-8.74c4.27,0,8.53,.04,12.8,0,3.22-.04,4.89-1.67,4.93-4.84,.05-5.45,.05-10.89,0-16.34-.03-3.36-1.67-4.97-5.06-4.99-8.26-.03-16.52-.03-24.79,0-3.4,0-5.03,1.62-5.06,4.98-.04,5.36-.04,10.71,0,16.07,.02,3.53,1.63,5.1,5.19,5.13,3.99,.03,7.99,0,11.98,0h.01Z"/><path class="cls-1" d="M104.81,244.47c-4.37,0-8.73,.05-13.1,0-7.44-.11-13.03-5.73-13.11-13.19-.06-5.73-.06-11.46,0-17.19,.07-7.6,5.7-13.2,13.33-13.25,8.55-.05,17.1-.05,25.65,0,7.77,.04,13.33,5.65,13.39,13.46,.04,5.64,.06,11.28,0,16.91-.08,7.61-5.69,13.17-13.33,13.26-4.27,.05-8.55,0-12.82,0h-.01Zm0-34.91c-4.09,0-8.17-.02-12.26,0-3.59,.03-5.2,1.58-5.22,5.09-.04,5.36-.04,10.71,0,16.07,.03,3.37,1.65,5,5.03,5.01,8.26,.04,16.52,.03,24.79,0,3.5,0,5.07-1.65,5.09-5.23,.03-5.26,.03-10.53,0-15.8-.02-3.54-1.62-5.12-5.17-5.15-4.09-.03-8.17,0-12.26,0h0Z"/><path class="cls-1" d="M178.99,48.06c0,1.64,.06,3.28,0,4.91-.3,7.04-6.18,12.59-13.24,12.52-6.91-.07-12.68-5.64-12.9-12.58-.1-3.18-.09-6.37,0-9.55,.17-7.1,5.94-12.74,12.97-12.79,7.17-.05,12.99,5.61,13.19,12.85,.04,1.54,0,3.09,0,4.64h-.01Zm-8.74,.02h0c0-1.63,.17-3.28-.04-4.89-.3-2.35-1.79-3.72-4.19-3.86-2.26-.14-4.29,1.55-4.41,3.9-.16,3.16-.15,6.34,0,9.51,.11,2.36,2.07,4.03,4.33,4.01,2.26,0,4.11-1.68,4.3-4.06,.13-1.53,.02-3.08,.02-4.62h-.01Z"/></svg>