<svg width="119" height="18" viewBox="0 0 119 18" fill="none" xmlns="http://www.w3.org/2000/svg">
<g id="Stars">
<path id="1" fill-rule="evenodd" clip-rule="evenodd" d="M17.9518 6.4611C17.8357 6.1209 17.5288 5.8806 17.1706 5.8527L12.0397 5.445L9.81944 0.5301C9.67454 0.207 9.35324 0 8.99954 0C8.64584 0 8.32454 0.207 8.17964 0.5292L5.95934 5.445L0.828442 5.8527C0.476542 5.8806 0.173242 6.1119 0.0535415 6.444C-0.0661585 6.7761 0.0184415 7.1478 0.271342 7.3944L4.06304 11.0907L2.72204 16.8975C2.63924 17.2566 2.78414 17.6301 3.08744 17.8398C3.24224 17.946 3.42044 18 3.59954 18C3.77324 18 3.94784 17.9496 4.09904 17.8488L8.99954 14.5818L13.9 17.8488C14.2132 18.0576 14.6245 18.0495 14.9305 17.8272C15.2347 17.6049 15.3688 17.2152 15.2653 16.8534L13.6192 11.0934L17.7016 7.4196C17.9689 7.1784 18.067 6.8022 17.9518 6.4611Z" fill="#E28210"/>
<path id="2" fill-rule="evenodd" clip-rule="evenodd" d="M43.152 6.4611C43.0359 6.1209 42.729 5.8806 42.3708 5.8527L37.2399 5.445L35.0196 0.5301C34.8747 0.207 34.5534 0 34.1997 0C33.846 0 33.5247 0.207 33.3798 0.5292L31.1595 5.445L26.0286 5.8527C25.6767 5.8806 25.3734 6.1119 25.2537 6.444C25.134 6.7761 25.2186 7.1478 25.4715 7.3944L29.2632 11.0907L27.9222 16.8975C27.8394 17.2566 27.9843 17.6301 28.2876 17.8398C28.4424 17.946 28.6206 18 28.7997 18C28.9734 18 29.148 17.9496 29.2992 17.8488L34.1997 14.5818L39.1002 17.8488C39.4134 18.0576 39.8247 18.0495 40.1307 17.8272C40.4349 17.6049 40.569 17.2152 40.4655 16.8534L38.8194 11.0934L42.9018 7.4196C43.1691 7.1784 43.2672 6.8022 43.152 6.4611Z" fill="#E28210"/>
<path id="3" fill-rule="evenodd" clip-rule="evenodd" d="M68.3522 6.4611C68.2361 6.1209 67.9292 5.8806 67.571 5.8527L62.4401 5.445L60.2198 0.5301C60.0749 0.207 59.7536 0 59.3999 0C59.0462 0 58.7249 0.207 58.58 0.5292L56.3597 5.445L51.2288 5.8527C50.8769 5.8806 50.5736 6.1119 50.4539 6.444C50.3342 6.7761 50.4188 7.1478 50.6717 7.3944L54.4634 11.0907L53.1224 16.8975C53.0396 17.2566 53.1845 17.6301 53.4878 17.8398C53.6426 17.946 53.8208 18 53.9999 18C54.1736 18 54.3482 17.9496 54.4994 17.8488L59.3999 14.5818L64.3004 17.8488C64.6136 18.0576 65.0249 18.0495 65.3309 17.8272C65.6351 17.6049 65.7692 17.2152 65.6657 16.8534L64.0196 11.0934L68.102 7.4196C68.3693 7.1784 68.4674 6.8022 68.3522 6.4611Z" fill="#E28210"/>
<path id="4" fill-rule="evenodd" clip-rule="evenodd" d="M93.5515 6.4611C93.4354 6.1209 93.1285 5.8806 92.7703 5.8527L87.6394 5.445L85.4191 0.5301C85.2742 0.207 84.9529 0 84.5992 0C84.2455 0 83.9242 0.207 83.7793 0.5292L81.559 5.445L76.4281 5.8527C76.0762 5.8806 75.7729 6.1119 75.6532 6.444C75.5335 6.7761 75.6181 7.1478 75.871 7.3944L79.6627 11.0907L78.3217 16.8975C78.2389 17.2566 78.3838 17.6301 78.6871 17.8398C78.8419 17.946 79.0201 18 79.1992 18C79.3729 18 79.5475 17.9496 79.6987 17.8488L84.5992 14.5818L89.4997 17.8488C89.8129 18.0576 90.2242 18.0495 90.5302 17.8272C90.8344 17.6049 90.9685 17.2152 90.865 16.8534L89.2189 11.0934L93.3013 7.4196C93.5686 7.1784 93.6667 6.8022 93.5515 6.4611Z" fill="#2F2F2F"/>
<path id="5" fill-rule="evenodd" clip-rule="evenodd" d="M118.752 6.4611C118.636 6.1209 118.329 5.8806 117.97 5.8527L112.84 5.445L110.619 0.5301C110.474 0.207 110.153 0 109.799 0C109.446 0 109.124 0.207 108.979 0.5292L106.759 5.445L101.628 5.8527C101.276 5.8806 100.973 6.1119 100.853 6.444C100.734 6.7761 100.818 7.1478 101.071 7.3944L104.863 11.0907L103.522 16.8975C103.439 17.2566 103.584 17.6301 103.887 17.8398C104.042 17.946 104.22 18 104.399 18C104.573 18 104.748 17.9496 104.899 17.8488L109.799 14.5818L114.7 17.8488C115.013 18.0576 115.424 18.0495 115.73 17.8272C116.035 17.6049 116.169 17.2152 116.065 16.8534L114.419 11.0934L118.501 7.4196C118.769 7.1784 118.867 6.8022 118.752 6.4611Z" fill="#2F2F2F"/>
</g>
</svg>
