<?xml version="1.0" encoding="utf-8"?>
<!-- Generator: Adobe Illustrator 27.0.0, SVG Export Plug-In . SVG Version: 6.00 Build 0)  -->
<svg version="1.1" id="Capa_1" xmlns="http://www.w3.org/2000/svg" xmlns:xlink="http://www.w3.org/1999/xlink" x="0px" y="0px"
	 viewBox="0 0 390 100" style="enable-background:new 0 0 390 100;" xml:space="preserve">
<style type="text/css">
	.st0{fill:#FFFFFF;}
	.st1{fill:#E28210;}
</style>
<g>
	<g>
		<path class="st0" d="M16.2,83.8c-0.1-0.7-0.3-1.5-0.5-2.3c-0.1-0.7-0.2-1.6-0.3-2.6s-0.1-2.1-0.1-3.4c0-1.2,0-2.4,0.1-3.4
			s0.2-1.9,0.3-2.6c0.2-0.9,0.3-1.6,0.5-2.3h16.6V47.6c0.9-0.2,0.9-0.3,2-0.5c0.9-0.1,2-0.2,3.2-0.3s2.5-0.1,4-0.1
			c1.6,0,3,0,4.2,0.1s2.3,0.2,3.2,0.3c1.1,0.1,1,0.3,1.8,0.5v19.7h17c0.2,0.7,0.3,1.4,0.5,2.2C68.9,71,69,73,69,75.3
			c0,1.3,0,2.5-0.1,3.5s-0.2,1.9-0.3,2.7c-0.1,0.9-0.3,1.6-0.5,2.3H16.2z"/>
	</g>
	<g>
		<path class="st0" d="M114.8,16.7c0.1,0.7,0.3,1.5,0.5,2.3c0.1,0.7,0.2,1.6,0.3,2.6c0.1,1,0.1,2.1,0.1,3.4c0,1.2,0,2.4-0.1,3.4
			s-0.2,1.9-0.3,2.6c-0.2,0.9-0.3,1.6-0.5,2.3H98.2V53c-0.9,0.2-0.9,0.3-2,0.5c-0.9,0.1-2,0.2-3.2,0.3s-2.5,0.1-4,0.1
			c-1.6,0-3,0-4.2-0.1s-1.3-0.2-2.2-0.3c-1.1-0.1-2-0.3-2.8-0.5V33.3h-17c-0.2-0.7-0.3-1.4-0.5-2.2c-0.3-1.6-0.5-3.5-0.5-5.9
			c0-1.3,0-2.5,0.1-3.5s0.2-1.9,0.3-2.7c0.1-0.9,0.3-1.6,0.5-2.3C62.7,16.7,114.8,16.7,114.8,16.7z"/>
	</g>
	<circle class="st1" cx="42" cy="25.4" r="9.2"/>
	<circle class="st1" cx="88.8" cy="74.6" r="9.2"/>
	<g>
		<path class="st0" d="M148.4,83.8h-15.2V16.7h15.2v9.2c5.5-6.1,13.2-9.2,23.2-9.2v15.8c-1.5-0.4-3.5-0.7-5.9-0.7
			c-2.2,0-4.6,0.5-7,1.4c-2.7,1.1-5.1,2.6-7,4.6s-3,4.2-3.3,6.7V83.8z"/>
		<path class="st0" d="M209,83.8c-4.6,0-9-0.9-13.1-2.6s-7.6-4.1-10.7-7.2c-3.1-3.1-5.5-6.6-7.2-10.7s-2.6-8.4-2.6-13
			s0.9-9,2.6-13.1c1.7-4.1,4.1-7.6,7.2-10.7c3.1-3.1,6.6-5.5,10.7-7.2c4.1-1.7,8.4-2.6,13.1-2.6c4.6,0,9,0.9,13,2.6
			c4.1,1.7,7.6,4.1,10.7,7.2c3.1,3.1,5.5,6.6,7.2,10.7s2.6,8.4,2.6,13.1c0,4.6-0.9,9-2.6,13c-1.7,4.1-4.1,7.6-7.2,10.7
			c-3.1,3.1-6.6,5.5-10.7,7.2C218,83,213.6,83.8,209,83.8z M209,68.6c2.5,0,4.9-0.5,7.1-1.4c2.2-1,4.2-2.3,5.8-3.9
			c1.7-1.7,3-3.6,3.9-5.8c1-2.2,1.4-4.6,1.4-7.1s-0.5-4.9-1.4-7.1s-2.3-4.2-3.9-5.9c-1.7-1.7-3.6-3-5.8-4S211.5,32,209,32
			c-5.1,0-9.4,1.8-13,5.4s-5.4,7.9-5.4,13c0,2.5,0.5,4.9,1.4,7.1c1,2.2,2.3,4.2,4,5.8c1.7,1.7,3.6,3,5.9,3.9
			C204.1,68.2,206.5,68.6,209,68.6z"/>
		<path class="st0" d="M280.2,83.8c-4.6,0-9-0.9-13.1-2.6s-7.6-4.1-10.7-7.2s-5.5-6.6-7.2-10.7s-2.6-8.4-2.6-13s0.9-9,2.6-13.1
			c1.7-4.1,4.1-7.6,7.2-10.7c3.1-3.1,6.6-5.5,10.7-7.2s8.4-2.6,13.1-2.6c4.6,0,9,0.9,13.3,2.8c4.3,1.8,8,4.5,11.2,7.8l-11,10.4
			c-3.6-3.9-8.1-5.8-13.4-5.8c-2.5,0-4.9,0.5-7.1,1.4c-2.2,1-4.2,2.3-5.9,4c-1.7,1.7-3,3.6-4,5.9c-1,2.2-1.4,4.6-1.4,7.1
			s0.5,4.9,1.4,7.1c1,2.2,2.3,4.2,4,5.8c1.7,1.7,3.6,3,5.9,3.9c2.2,1,4.6,1.4,7.1,1.4c2.9,0,5.6-0.6,8.1-1.8c2.5-1.2,4.6-3,6.4-5.3
			l12,9.3c-3.2,4.1-7.2,7.3-11.8,9.6C290.2,82.7,285.3,83.8,280.2,83.8z"/>
		<path class="st0" d="M341.2,83.8c-4.6,0-9-0.9-13.1-2.6s-7.6-4.1-10.7-7.2s-5.5-6.6-7.2-10.7s-2.6-8.4-2.6-13s0.9-9,2.6-13.1
			s4.1-7.6,7.2-10.7s6.6-5.5,10.7-7.2s8.4-2.6,13.1-2.6c4.6,0,9,0.9,13,2.6c4.1,1.7,7.6,4.1,10.7,7.2s5.5,6.6,7.2,10.7
			s2.6,8.4,2.6,13.1c0,4.6-0.9,9-2.6,13c-1.7,4.1-4.1,7.6-7.2,10.7s-6.6,5.5-10.7,7.2C350.2,83,345.8,83.8,341.2,83.8z M341.2,68.6
			c2.5,0,4.9-0.5,7.1-1.4c2.2-1,4.2-2.3,5.8-3.9c1.7-1.7,3-3.6,3.9-5.8c1-2.2,1.4-4.6,1.4-7.1s-0.5-4.9-1.4-7.1
			c-1-2.2-2.3-4.2-3.9-5.9c-1.7-1.7-3.6-3-5.8-4c-2.2-1-4.6-1.4-7.1-1.4c-5.1,0-9.4,1.8-13,5.4s-5.4,7.9-5.4,13
			c0,2.5,0.5,4.9,1.4,7.1c1,2.2,2.3,4.2,4,5.8c1.7,1.7,3.6,3,5.9,3.9C336.3,68.2,338.7,68.6,341.2,68.6z"/>
	</g>
</g>
</svg>
