<?xml version="1.0" encoding="UTF-8"?><svg id="Capa_1" xmlns="http://www.w3.org/2000/svg" viewBox="0 0 175.59 116.48"><defs><style>.cls-1{fill:#fff;}</style></defs><path class="cls-1" d="M175.59,105.58c-.57,.17-.48,.73-.61,1.12-1.93,5.81-6.58,9.38-12.73,9.75-.57,.03-1.14,.03-1.71,.03H14.98c-7.26,0-12.6-3.72-14.43-10.03-.4-1.37-.55-2.78-.55-4.22C0,72.92,0,43.6,0,14.28,.02,6.13,5.81,.23,13.94,.02,15.6-.02,17.25,.02,18.91,.02H160.18c8.23,0,12.6,3.21,15.14,11.09,.02,.07,.18,.11,.27,.16V105.58h0Zm-87.92,4.03h73.37c4.86,0,7.68-2.81,7.68-7.64V14.54c0-4.83-2.81-7.63-7.67-7.64-5.77-.01-11.54,.02-17.31-.03-1.1,0-1.57,.26-1.8,1.42-.93,4.58-1.99,9.13-3.02,13.69-.84,3.73-3.34,5.76-7.19,5.76-29.26,.01-58.51,.01-87.77,0-3.96,0-6.42-2.01-7.29-5.85-1.01-4.5-2.07-9-2.99-13.53-.25-1.23-.72-1.52-1.91-1.51-5.6,.06-11.2,.03-16.8,.03S6.87,9.52,6.87,14.96V101.36c0,5.66,2.59,8.23,8.28,8.23H87.66v.02Zm.14-102.71h-6.17c-13.09,0-26.17,.02-39.26-.02-1.45,0-2.14,.04-1.64,1.88,.98,3.57,1.69,7.21,2.42,10.85,.19,.96,.49,1.31,1.52,1.31,28.74-.03,57.48-.03,86.23,0,1.02,0,1.33-.34,1.53-1.3,.72-3.58,1.56-7.13,2.34-10.69,.44-2.01,.43-2.02-1.72-2.02h-45.25Z"/><path class="cls-1" d="M87.93,36.44h62.23c5.08,0,8.43,2.38,9.46,6.71,.18,.77,.21,1.58,.21,2.38,0,15.31,.02,30.63,0,45.94,0,5.46-3.46,9.11-8.93,9.13-15.71,.07-31.43,.04-47.14,.01-2.5,0-4.01-1.4-3.99-3.49,.02-2.13,1.57-3.4,4.25-3.41,15.26-.01,30.51,0,45.77,0,2.99,0,3.16-.18,3.16-3.23V46.25c0-2.58-.29-2.89-2.82-2.89H25.5c-2.61,0-2.89,.28-2.89,2.82v44.74c0,2.46,.31,2.78,2.75,2.78h45.6c3.24,0,4.86,1.19,4.83,3.52-.04,2.26-1.63,3.4-4.78,3.4-15.26,0-30.51,.01-45.77,0-4.92,0-8.29-2.44-9.28-6.71-.22-.93-.21-1.93-.21-2.89-.01-14.91,.13-29.83-.08-44.74-.08-5.48,3.5-9.93,9.86-9.89,20.8,.13,41.6,.05,62.4,.05h0Z"/><path class="cls-1" d="M87.78,53.39c13.25,0,26.51-.03,39.76,0,7.99,.02,14.13,5.09,15.56,12.7,1.7,9.06-5.12,17.71-14.33,18.18-.46,.02-.91,.03-1.37,.03-26.39,0-52.78,.02-79.18,0-8.14,0-14.31-5.12-15.76-12.9-1.66-8.93,5.28-17.82,14.36-17.93,13.65-.17,27.31-.05,40.96-.05v-.03h0Zm27.19,24.03c-3.35-5.76-3.37-11.39-.09-17.03H60.7c3.34,5.75,3.22,11.37-.06,17.03h54.33ZM47.65,60.27c-4.76,0-8.56,3.84-8.55,8.6,.02,4.74,3.89,8.59,8.62,8.57,4.73-.02,8.55-3.89,8.54-8.64,0-4.75-3.83-8.54-8.62-8.53h0Zm71.69,8.59c.01,4.74,3.87,8.59,8.6,8.58,4.72-.01,8.57-3.89,8.56-8.63,0-4.75-3.84-8.55-8.61-8.54-4.77,0-8.56,3.82-8.55,8.59Z"/><path class="cls-1" d="M87.84,93.78c1.86,.02,3.36,1.52,3.38,3.36,.02,1.91-1.54,3.46-3.47,3.43-1.86-.03-3.35-1.51-3.38-3.36-.02-1.91,1.54-3.46,3.47-3.43Z"/></svg>