<?xml version="1.0" encoding="UTF-8"?><svg id="Capa_1" xmlns="http://www.w3.org/2000/svg" viewBox="0 0 166.18 262.42"><defs><style>.cls-1{fill:#fff;}</style></defs><path class="cls-1" d="M119.99,0c1.62,.6,3.3,1.08,4.84,1.83,4.61,2.26,7.58,5.95,9.05,10.87,3.07,10.28,6.17,20.54,9.22,30.83,.45,1.51,1.17,2.75,2.3,3.86,5,4.91,9.89,9.92,14.88,14.82,3.99,3.92,5.91,8.55,5.9,14.19-.06,36.55-.06,73.1,0,109.65,0,5.53-1.84,10.12-5.76,13.98-4.93,4.85-9.76,9.8-14.7,14.64-1.32,1.29-2.17,2.71-2.7,4.5-2.98,10.13-6.02,20.23-9.11,30.33-2.54,8.3-8.82,12.9-17.53,12.9-22.2,.02-44.4,.02-66.6,0-8.7,0-14.98-4.63-17.51-12.93-3.08-10.1-6.12-20.2-9.11-30.33-.52-1.78-1.38-3.2-2.7-4.5-4.88-4.78-9.64-9.69-14.52-14.46-4.02-3.9-5.94-8.52-5.94-14.16,.06-36.55,.06-73.1,0-109.65,0-5.54,1.83-10.13,5.75-13.99,4.98-4.92,9.88-9.93,14.88-14.83,1.2-1.18,1.99-2.46,2.46-4.06,2.93-9.96,5.96-19.89,8.87-29.86,1.88-6.45,5.78-10.89,12.24-12.98,.38-.12,.87-.11,.96-.66H119.99ZM8.77,130.96c0,18.36,.03,36.72-.03,55.07-.01,3.1,.96,5.61,3.17,7.78,4.93,4.85,9.81,9.75,14.66,14.68,1.03,1.05,2.08,1.51,3.57,1.51,35.35-.04,70.69-.04,106.04,0,1.4,0,2.39-.42,3.36-1.41,4.78-4.88,9.58-9.74,14.48-14.5,2.43-2.36,3.45-5.06,3.44-8.45-.06-36.29-.06-72.58,0-108.87,0-3.5-1.13-6.23-3.61-8.64-4.78-4.64-9.47-9.37-14.12-14.13-1.1-1.13-2.21-1.59-3.8-1.59-35.17,.04-70.35,.04-105.52,0-1.69,0-2.86,.51-4.01,1.7-4.59,4.7-9.21,9.39-13.95,13.94-2.57,2.47-3.74,5.25-3.72,8.85,.1,18.02,.05,36.03,.05,54.05h0ZM32.23,43.47c.45,.11,.7,.22,.94,.22,33.02,0,66.05,0,99.07,.04,1.78,0,1.66-.58,1.24-1.95-2.69-8.79-5.24-17.61-7.92-26.4-1.31-4.32-4.41-6.61-8.92-6.62-22.36-.03-44.71-.02-67.07,0-4.52,0-7.57,2.3-8.94,6.6-.85,2.67-1.62,5.38-2.42,8.07-1.99,6.67-3.97,13.34-5.97,20.05h0Zm.07,175.25c.15,.72,.22,1.22,.36,1.7,2.61,8.72,5.22,17.44,7.86,26.15,1.5,4.97,4.38,7.1,9.57,7.11,22.02,0,44.03,0,66.05,0,5.18,0,8.04-2.15,9.55-7.13,2.54-8.38,4.98-16.8,7.64-25.15,.75-2.37,.21-2.73-2.12-2.72-32.08,.07-64.17,.05-96.25,.05h-2.66Z"/><path class="cls-1" d="M83.09,122.49H31.85c-8.95,0-14.35-5.39-14.36-14.31,0-8.88,.03-17.76-.02-26.64-.02-4.07,1.37-7.46,4.24-10.33,10.27-10.24,8.74-10.02,23.58-9.99,27.24,.05,54.48,.07,81.72-.03,5.11-.02,9.18,1.6,12.78,5.26,8.95,9.12,9.01,8.54,8.9,21.49-.06,6.92,0,13.83-.02,20.75-.03,8.23-5.59,13.79-13.84,13.8-17.25,.03-34.5,0-51.75,0h.01Zm-.11-8.74h51.48c3.89,0,5.47-1.57,5.49-5.41,.02-6.83,.07-13.66,0-20.49-.13-10.72,1.33-7.13-6.2-15.06-1.92-2.02-3.97-2.83-6.75-2.82-27.32,.08-54.64,.29-81.95-.12-7.09-.11-12.55,1.4-16.81,7.14-1.17,1.58-2.04,2.99-2.03,5.01,.07,8.54,.03,17.07,.03,25.61,0,4.77,1.35,6.13,6.05,6.13h50.69Z"/><path class="cls-1" d="M128.92,192.42c-2.13,0-4.26,.08-6.38-.02-2.67-.13-4.45-1.92-4.47-4.3-.02-2.35,1.77-4.3,4.41-4.38,4.34-.13,8.69-.13,13.02,0,2.68,.08,4.43,1.94,4.46,4.33,.02,2.49-1.8,4.26-4.64,4.38-2.13,.09-4.26,.02-6.38,.02h0s-.02-.02-.02-.02Z"/><path class="cls-1" d="M37.26,192.41c-2.21,0-4.43,.09-6.64-.02-2.67-.14-4.41-1.97-4.38-4.37,.03-2.27,1.72-4.21,4.21-4.29,4.51-.15,9.03-.15,13.53,.02,2.47,.09,4.17,2.11,4.14,4.36-.03,2.28-1.74,4.11-4.23,4.26-2.21,.13-4.43,.03-6.64,.03v.02h.01Z"/><path class="cls-1" d="M67.85,192.41c-2.21,0-4.43,.09-6.63-.02-2.6-.14-4.22-1.78-4.3-4.13-.09-2.47,1.52-4.43,4.18-4.52,4.5-.15,9.01-.15,13.51,.02,2.53,.1,4.08,2.01,4.05,4.37-.03,2.37-1.62,4.09-4.18,4.24-2.2,.13-4.42,.03-6.63,.03v.02h0Z"/><path class="cls-1" d="M98.46,192.41c-2.21,0-4.43,.09-6.63-.02-2.59-.13-4.22-1.79-4.31-4.13-.09-2.45,1.54-4.43,4.18-4.51,4.5-.15,9.01-.15,13.51,.02,2.54,.1,4.08,2,4.05,4.37-.03,2.38-1.6,4.08-4.18,4.24-2.2,.13-4.42,.03-6.63,.03h0Z"/><path class="cls-1" d="M37.03,174.9c-2.13,0-4.26,.07-6.38-.02-2.54-.1-4.26-1.76-4.4-4.07-.14-2.34,1.63-4.5,4.18-4.59,4.51-.15,9.03-.15,13.53,0,2.45,.08,4.18,2.12,4.17,4.36,0,2.38-1.83,4.2-4.46,4.3-2.21,.08-4.43,.02-6.64,.02Z"/><path class="cls-1" d="M129.05,174.89c-2.21,0-4.43,.07-6.64-.02-2.5-.1-4.25-1.84-4.35-4.13-.1-2.24,1.58-4.39,4.01-4.49,4.59-.18,9.2-.18,13.79-.02,2.45,.09,4.13,2.14,4.08,4.41-.05,2.41-1.83,4.09-4.5,4.25h-6.39v0Z"/><path class="cls-1" d="M37.09,157.41c-2.13,0-4.26,.05-6.38-.02-2.63-.09-4.44-1.87-4.47-4.27-.03-2.36,1.79-4.34,4.37-4.41,4.34-.11,8.68-.1,13.02,0,2.6,.06,4.46,1.97,4.49,4.32,.03,2.44-1.9,4.27-4.66,4.39h-6.37Z"/><path class="cls-1" d="M128.93,157.41c-2.13,0-4.26,.05-6.38-.02-2.61-.09-4.46-1.9-4.49-4.27-.03-2.34,1.81-4.34,4.39-4.41,4.34-.11,8.68-.1,13.02,0,2.59,.06,4.45,1.97,4.48,4.32,.03,2.48-1.86,4.27-4.63,4.39h-6.39Z"/><path class="cls-1" d="M67.8,139.94c-2.13,0-4.25,.05-6.38,0-2.69-.08-4.43-1.75-4.5-4.2-.07-2.57,1.7-4.44,4.47-4.49,4.25-.08,8.51-.07,12.76,0,2.79,.05,4.57,1.89,4.51,4.46-.06,2.46-1.8,4.14-4.48,4.23-2.12,.07-4.25,0-6.38,0Z"/><path class="cls-1" d="M98.55,131.22c2.13,0,4.26-.07,6.38,.02,2.63,.11,4.36,1.91,4.35,4.36,0,2.45-1.75,4.27-4.39,4.31-4.34,.08-8.68,.08-13.01,0-2.63-.05-4.37-1.89-4.36-4.35,0-2.44,1.76-4.23,4.39-4.33,2.21-.08,4.42-.02,6.63-.02h.01Z"/><path class="cls-1" d="M67.9,157.41c-2.21,0-4.43,.06-6.63-.02-2.56-.09-4.23-1.71-4.35-4.07-.12-2.45,1.54-4.5,4.11-4.58,4.5-.14,9.02-.14,13.52,0,2.58,.08,4.23,2.14,4.09,4.6-.13,2.36-1.8,3.97-4.37,4.06-2.12,.07-4.25,0-6.38,0h.01Z"/><path class="cls-1" d="M98.37,157.4c-2.21,0-4.43,.07-6.63-.02-2.52-.11-4.16-1.83-4.21-4.21-.05-2.35,1.55-4.34,4.01-4.42,4.59-.15,9.19-.15,13.78,0,2.44,.09,4.03,2.13,3.95,4.47-.08,2.38-1.72,4.05-4.26,4.15-2.21,.09-4.42,.02-6.63,.02h-.01Z"/><path class="cls-1" d="M67.78,174.89c-2.21,0-4.43,.08-6.63-.02-2.55-.11-4.18-1.79-4.24-4.17-.06-2.35,1.51-4.36,3.98-4.45,4.59-.17,9.19-.17,13.77,0,2.47,.09,4.05,2.1,3.99,4.44-.06,2.36-1.71,4.07-4.24,4.18-2.21,.1-4.42,.02-6.63,.02Z"/><path class="cls-1" d="M98.33,174.89c-2.21,0-4.43,.08-6.63-.03-2.43-.11-4.02-1.72-4.16-3.98-.15-2.37,1.34-4.49,3.79-4.6,4.67-.21,9.36-.2,14.02-.02,2.47,.1,4.01,2.15,3.91,4.5-.09,2.37-1.73,4-4.3,4.11-2.21,.09-4.42,.02-6.63,.02Z"/><path class="cls-1" d="M37.06,139.94c-2.13,0-4.26,.06-6.38-.02-2.58-.09-4.43-1.96-4.43-4.33s1.84-4.3,4.41-4.35c4.34-.08,8.68-.08,13.02,0,2.57,.05,4.45,1.99,4.46,4.33,0,2.34-1.88,4.25-4.44,4.35-2.21,.08-4.43,.02-6.64,.02Z"/><path class="cls-1" d="M129.03,139.94c-2.13,0-4.26,.05-6.38,0-2.71-.08-4.66-2.01-4.59-4.45,.07-2.36,1.93-4.2,4.54-4.24,4.25-.07,8.51-.07,12.77,0,2.72,.04,4.64,1.99,4.57,4.45-.06,2.38-1.91,4.16-4.52,4.24-2.13,.07-4.26,0-6.38,0h0Z"/><path class="cls-1" d="M83.36,21.92h28.42c.85,0,1.72-.04,2.56,.08,2.11,.31,3.36,1.58,3.64,3.69,.27,2.11-.65,3.64-2.56,4.55-.95,.45-1.98,.44-3.01,.44H53.77c-.43,0-.86,.02-1.28-.02-2.66-.26-4.34-2.02-4.31-4.47,.03-2.49,1.71-4.2,4.45-4.23,6.49-.07,12.97-.03,19.46-.03h11.27Z"/><path class="cls-1" d="M83.09,240.51h-28.68c-.85,0-1.72,.04-2.56-.08-2.11-.31-3.38-1.56-3.64-3.68-.27-2.22,.7-3.78,2.78-4.64,.9-.37,1.83-.35,2.77-.35h58.64c.43,0,.86-.02,1.28,.02,2.66,.25,4.35,2,4.32,4.45-.03,2.49-1.71,4.21-4.44,4.25-6.06,.07-12.12,.03-18.18,.03h-12.29Z"/><path class="cls-1" d="M52.24,105.04c-1.65-.17-3.04-.94-3.75-2.57-.69-1.59-.66-3.29,.58-4.56,5.99-6.09,12.01-12.14,18.12-18.1,1.62-1.58,4.26-1.27,5.8,.28,1.6,1.61,1.89,4.1,.25,5.78-5.96,6.12-12.04,12.12-18.1,18.13-.74,.74-1.76,1.02-2.91,1.03h0Z"/><path class="cls-1" d="M48.14,83.15c-.15,1.17-.5,2.21-1.31,3.03-1.43,1.46-2.83,2.96-4.34,4.34-1.92,1.77-4.52,1.77-6.22,.13-1.83-1.77-1.82-4.3,.12-6.36,1.46-1.55,2.98-3.06,4.55-4.49,1.41-1.28,3.09-1.34,4.76-.55,1.63,.77,2.26,2.22,2.43,3.89h.01Z"/></svg>