<?xml version="1.0" encoding="UTF-8"?><svg id="Capa_1" xmlns="http://www.w3.org/2000/svg" viewBox="0 0 133.74 268.1"><defs><style>.cls-1{fill:#fff;}</style></defs><path class="cls-1" d="M109.24,0c2.15,.96,4.5,1.48,6.33,3.14,2.69,2.44,4.42,5.35,4.71,9.01,.11,1.3,.1,2.61,.1,3.92,0,57.66-.01,115.31,.03,172.97,0,4.81-.49,9.39-3.62,13.28-.71,.88-.31,1.34,.34,1.91,2.02,1.78,3.19,4.09,3.97,6.62,3.98,12.95,7.99,25.88,11.91,38.84,2.45,8.09-1.44,15.13-9.52,17.34-.71,.2-.79,.5-.69,1.07H10.47c-.32-1.1-1.36-1.19-2.2-1.56-6.33-2.78-9.67-9.19-7.71-15.84,4.04-13.74,8.34-27.4,12.57-41.09,.65-2.11,1.87-3.93,3.56-5.37,.85-.73,.84-1.23,.16-2.12-2.58-3.39-3.44-7.29-3.44-11.51,.03-51.29,0-102.59,.03-153.88,0-11.48,7.52-18.9,19-18.91,19.59-.01,39.19,0,58.78-.02,1.03,0,2.6,.69,2.42-1.52-.67-8.03,2.91-13.4,10.38-16.27h5.22Zm2.22,113.93V37.14c0-7.04-3.38-10.42-10.37-10.42H32.91c-7.23,0-10.55,3.3-10.55,10.5V190.29c0,7.07,3.32,10.39,10.36,10.39H100.63c7.62,0,10.82-3.16,10.82-10.72V113.95h0Zm-44.72,144.72h52.52c4.51,0,6.42-2.49,5.12-6.72-3.87-12.71-7.78-25.4-11.7-38.09-1.05-3.4-2.26-4.26-5.89-4.26H27.1c-3.75,0-4.92,.85-6.03,4.44-3.84,12.44-7.67,24.89-11.5,37.34-1.52,4.94,.24,7.3,5.43,7.3h51.74ZM111.42,20.18c0-2.62,.11-4.88-.03-7.13-.14-2.35-2.02-4.09-4.26-4.12-1.81-.02-3.24,.81-4.01,2.42-.94,1.95-.66,4.07-.4,6.14,.02,.17,.73,.31,1.12,.36,2.5,.32,4.9,1.02,7.58,2.33Z"/><path class="cls-1" d="M66.81,120.37c-8.53,0-17.06,.02-25.6,0-6.54-.02-9.91-3.43-9.93-10.01-.01-5.4-.04-10.8,0-16.19,.05-5.8,3.68-9.45,9.47-9.46,17.41-.03,34.82-.03,52.24,0,5.82,0,9.48,3.63,9.54,9.4,.05,5.66,.05,11.32,0,16.98-.05,5.68-3.6,9.23-9.34,9.27-8.79,.06-17.59,.02-26.38,.02h0Zm-.03-8.94c8.27,0,16.54-.03,24.81,.03,1.5,.01,2.14-.22,2.09-1.94-.13-4.7-.11-9.4-.01-14.1,.03-1.55-.51-1.85-1.94-1.85-16.54,.05-33.08,.06-49.62-.01-1.74,0-1.97,.64-1.94,2.11,.08,4.53,.13,9.06-.02,13.58-.07,1.92,.6,2.24,2.34,2.22,8.09-.09,16.19-.04,24.29-.04Z"/><path class="cls-1" d="M66.91,75.8c-3.22,0-6.43-.03-9.65,0-2.98,.03-5.36-1.11-7.28-3.38-7.67-9.02-6.97-22.57,1.61-30.65,8.62-8.12,22.17-8.12,30.7,0,8.58,8.18,9.26,21.64,1.57,30.65-1.92,2.25-4.31,3.4-7.29,3.36-3.22-.04-6.43,0-9.65,0h-.01Zm4.49-30.27v20.02c0,.48-.16,1.03,.48,1.34,1.47,.72,5.34-.32,6.26-1.71,4.65-7.04,1.58-16.45-6.74-19.65Zm-8.96,.13c-7.31,1.73-12.28,12.52-6.05,20.48,.58,.75,4.84,1.24,5.65,.74,.46-.28,.39-.72,.39-1.14v-20.09h0Z"/><path class="cls-1" d="M40.25,138.15c-1.73,0-3.49,.18-5.19-.04-2.36-.3-3.67-1.82-3.75-4.24-.08-2.34,1.41-4.27,3.84-4.41,3.36-.2,6.76-.2,10.12,.02,2.4,.16,3.64,1.9,3.8,4.23,.15,2.22-1.52,4.05-3.89,4.46-.26,.04-.52,.09-.77,.09h-4.16v-.11Z"/><path class="cls-1" d="M93.8,129.41c1.65,0,3.31-.17,4.93,.04,2.37,.3,3.69,1.8,3.78,4.22,.09,2.37-1.36,4.28-3.81,4.44-3.36,.21-6.76,.21-10.13,0-2.4-.15-3.65-1.87-3.83-4.21-.17-2.22,1.5-4.07,3.85-4.49,.26-.05,.52-.09,.77-.09h4.42v.1h.02Z"/><path class="cls-1" d="M66.95,129.35c1.56,0,3.13-.12,4.68,.03,2.57,.24,4.2,2.07,4.17,4.45-.02,2.3-1.55,4.17-4,4.31-3.28,.19-6.59,.19-9.87-.02-2.43-.15-3.94-2.09-3.92-4.39,.02-2.29,1.56-3.98,4-4.36,.26-.04,.52-.08,.78-.08h4.16v.05h0Z"/><path class="cls-1" d="M40.14,156.09c-1.56,0-3.13,.13-4.67-.03-2.67-.27-4.3-2.2-4.17-4.71,.12-2.38,1.8-4.04,4.45-4.12,2.94-.1,5.89-.09,8.84,0,2.58,.09,4.34,1.81,4.49,4.15,.15,2.36-1.65,4.44-4.26,4.69-1.54,.15-3.12,.03-4.68,.03h0Z"/><path class="cls-1" d="M93.8,147.24c1.56,0,3.13-.1,4.68,.03,2.4,.19,3.81,1.58,4.02,3.98,.2,2.39-.94,4.21-3.28,4.59-3.67,.6-7.43,.59-11.11,0-2.2-.36-3.63-2.52-3.32-4.6,.34-2.3,1.66-3.81,4.09-3.97,1.64-.11,3.29-.02,4.94-.02h-.02Z"/><path class="cls-1" d="M66.93,147.23c1.56,0,3.13-.09,4.68,.02,2.44,.17,4.12,1.85,4.18,4.13,.06,2.39-1.12,4.15-3.46,4.49-3.6,.53-7.27,.55-10.86,0-2.34-.36-3.49-2.13-3.42-4.52,.07-2.18,1.67-3.88,3.95-4.07,1.63-.14,3.29-.03,4.94-.03v-.02h-.01Z"/><path class="cls-1" d="M66.83,191.77c-1.47,0-2.95,.08-4.42-.02-2.63-.17-4.43-2.08-4.39-4.53,.04-2.48,1.84-4.26,4.55-4.33,2.95-.07,5.9-.08,8.84,0,2.55,.08,4.3,1.84,4.39,4.22,.09,2.45-1.69,4.44-4.29,4.62-1.55,.11-3.12,.02-4.68,.02v.02Z"/><path class="cls-1" d="M40.23,165.06c1.47,0,2.95-.06,4.42,0,2.54,.13,4.32,1.86,4.43,4.2,.1,2.18-1.5,4.4-3.8,4.55-3.45,.22-6.94,.23-10.38-.04-2.35-.19-3.73-2.32-3.59-4.65,.14-2.3,1.78-3.91,4.24-4.05,1.56-.09,3.12-.02,4.68-.02Z"/><path class="cls-1" d="M67.09,165.06c1.47,0,2.95-.07,4.42,.02,2.43,.14,4.12,1.78,4.29,4.04,.17,2.34-1.43,4.55-3.87,4.72-3.28,.23-6.59,.22-9.87,.03-2.47-.14-4.12-2.24-4.03-4.59,.09-2.39,1.81-4.08,4.39-4.21,1.56-.08,3.12,0,4.68,0h0Z"/><path class="cls-1" d="M93.61,173.95c-1.47,0-2.95,.09-4.42-.02-2.64-.19-4.48-2.12-4.45-4.52,.03-2.44,1.87-4.27,4.56-4.34,2.95-.08,5.9-.08,8.84,0,2.62,.08,4.29,1.76,4.38,4.18,.1,2.5-1.58,4.43-4.23,4.66-1.55,.13-3.12,.02-4.68,.02h0v.02Z"/><path class="cls-1" d="M93.69,191.76c-1.56,0-3.13,.09-4.68-.02-2.45-.18-4.26-2.12-4.28-4.41-.02-2.4,1.87-4.36,4.48-4.44,2.94-.08,5.9-.08,8.84,0,2.72,.07,4.46,1.85,4.47,4.37,.01,2.5-1.73,4.33-4.41,4.49-1.47,.09-2.95,.02-4.42,.02h0Z"/><path class="cls-1" d="M40.19,191.76c-1.56,0-3.13,.1-4.68-.02-2.62-.2-4.31-2.14-4.21-4.66,.1-2.41,1.8-4.1,4.39-4.18,2.94-.08,5.9-.08,8.84,0,2.63,.07,4.53,1.96,4.55,4.37,.02,2.38-1.88,4.33-4.47,4.49-1.47,.09-2.95,.02-4.42,.02h0v-.02Z"/><path class="cls-1" d="M75.79,240.85c5.66,0,11.32-.02,16.98,0,3.29,0,5.35,1.72,5.37,4.38,.02,2.66-2.08,4.51-5.3,4.51-11.32,.02-22.64,.02-33.96,0-3.28,0-5.33-1.76-5.35-4.44-.03-2.69,2.01-4.44,5.28-4.46,5.66-.02,11.32,0,16.98,0h0Z"/><path class="cls-1" d="M35.68,244.95c.21-2.45,2.37-4.26,4.86-4.07,2.5,.19,4.21,2.28,3.98,4.86-.21,2.35-2.31,4.17-4.64,4.01-2.43-.17-4.41-2.42-4.2-4.79h0Z"/></svg>