<svg width="81" height="72" viewBox="0 0 81 72" fill="none" xmlns="http://www.w3.org/2000/svg">
<g id="Exchange icon" clip-path="url(#clip0_57_5806)">
<path id="Vector" d="M-0.000641984 17.3761C0.547184 16.18 1.23588 15.1485 2.57153 14.8193C3.02023 14.7096 3.45849 14.7151 3.90718 14.7151C22.5124 14.7151 41.1228 14.7151 59.7281 14.7151C60.4028 14.7151 60.7402 14.3475 60.7402 13.6123C60.7402 10.1174 60.7507 6.62792 60.735 3.13299C60.7298 1.81622 61.1941 0.812181 62.3524 0.252553C63.4167 -0.263183 64.5228 0.0221174 65.5089 1.0481C70.3507 6.0683 75.1872 11.094 80.0237 16.1197C81.3072 17.4529 81.328 19.0275 80.055 20.3553C75.1872 25.4303 70.3141 30.4944 65.4307 35.553C64.4863 36.5351 63.3802 36.793 62.3315 36.2718C61.215 35.7176 60.7246 34.752 60.7298 33.4626C60.7402 29.858 60.7141 26.2533 60.7507 22.6541C60.7611 21.9354 60.5628 21.8147 59.9263 21.8147C41.5298 21.8366 23.1333 21.8092 4.73675 21.8586C2.60805 21.8641 0.901967 21.4251 -0.00585938 19.2086V17.3761H-0.000641984Z" fill="#E28210"/>
<path id="Vector_2" d="M0.000334578 52.9781C0.788161 51.5077 2.0612 50.4927 3.16729 49.335C7.27859 45.0336 11.416 40.765 15.5377 36.4745C16.3047 35.6735 17.1916 35.3004 18.2612 35.6077C19.2942 35.9039 19.9255 36.6336 20.176 37.7145C20.249 38.0327 20.2438 38.3729 20.2438 38.7021C20.2438 42.2519 20.2647 45.7962 20.2282 49.346C20.2229 50.0263 20.369 50.2019 21.0316 50.2019C39.7464 50.1799 58.456 50.1854 77.1708 50.1854C79.1012 50.1854 80.3951 51.1072 80.849 52.7915C81.4334 54.9587 79.9673 57.1424 77.8334 57.2905C77.5203 57.3125 77.2021 57.3015 76.8838 57.3015C58.3047 57.3015 39.7203 57.307 21.1412 57.2795C20.3586 57.2795 20.2125 57.499 20.2229 58.2726C20.2647 61.795 20.2282 65.3118 20.249 68.8342C20.2542 70.1839 19.8108 71.2373 18.5951 71.7695C17.3847 72.2907 16.3569 71.9067 15.4438 70.952C10.7273 66.0306 6.00555 61.1256 1.26816 56.2261C0.762074 55.6994 0.339465 55.1233 -0.00488281 54.4759V52.9781H0.000334578Z" fill="#E28210"/>
</g>
<defs>
<clipPath id="clip0_57_5806">
<rect width="81" height="72" fill="white"/>
</clipPath>
</defs>
</svg>
