<?xml version="1.0" encoding="UTF-8"?><svg id="Capa_1" xmlns="http://www.w3.org/2000/svg" viewBox="0 0 217.93 45.93"><defs><style>.cls-1{fill:#fff;}</style></defs><path class="cls-1" d="M12.47,9.63H0V1.11H34.57V9.63h-12.47V44.82H12.47V9.63Z"/><path class="cls-1" d="M39.45,1.11h16.92c2.22,0,4.33,.22,6.33,.65,2,.43,3.74,1.15,5.25,2.16,1.5,1.01,2.7,2.37,3.58,4.07,.88,1.71,1.33,3.84,1.33,6.39,0,3.09-.8,5.71-2.41,7.87-1.61,2.16-3.95,3.53-7.04,4.11l11.11,18.46h-11.54l-9.14-17.47h-4.75v17.47h-9.63V1.11Zm9.63,18.09h5.68c.86,0,1.78-.03,2.75-.09,.97-.06,1.84-.25,2.62-.56,.78-.31,1.43-.79,1.94-1.45,.51-.66,.77-1.58,.77-2.78,0-1.11-.23-2-.68-2.65-.45-.66-1.03-1.16-1.73-1.51-.7-.35-1.5-.59-2.41-.71-.91-.12-1.79-.19-2.65-.19h-6.3v9.94Z"/><path class="cls-1" d="M77.11,22.97c0-3.5,.59-6.67,1.76-9.51,1.17-2.84,2.81-5.26,4.91-7.25,2.1-2,4.59-3.53,7.47-4.6,2.88-1.07,6.03-1.6,9.45-1.6s6.56,.54,9.45,1.6c2.88,1.07,5.37,2.6,7.47,4.6,2.1,2,3.74,4.41,4.91,7.25,1.17,2.84,1.76,6.01,1.76,9.51s-.59,6.67-1.76,9.51-2.81,5.26-4.91,7.25c-2.1,2-4.59,3.53-7.47,4.6-2.88,1.07-6.03,1.61-9.45,1.61s-6.57-.54-9.45-1.61c-2.88-1.07-5.37-2.6-7.47-4.6-2.1-2-3.73-4.41-4.91-7.25-1.17-2.84-1.76-6.01-1.76-9.51Zm10,0c0,2.06,.32,3.94,.96,5.65,.64,1.71,1.55,3.19,2.75,4.45,1.19,1.26,2.62,2.23,4.29,2.93,1.67,.7,3.53,1.05,5.59,1.05s3.92-.35,5.59-1.05c1.67-.7,3.1-1.68,4.29-2.93,1.19-1.25,2.11-2.74,2.75-4.45,.64-1.71,.96-3.59,.96-5.65s-.32-3.89-.96-5.62c-.64-1.73-1.55-3.22-2.75-4.48-1.19-1.25-2.62-2.23-4.29-2.93-1.67-.7-3.53-1.05-5.59-1.05s-3.92,.35-5.59,1.05c-1.67,.7-3.1,1.68-4.29,2.93-1.19,1.26-2.11,2.75-2.75,4.48-.64,1.73-.96,3.6-.96,5.62Z"/><path class="cls-1" d="M159.4,12.47c-.95-1.15-2.11-2.04-3.49-2.65-1.38-.62-2.97-.93-4.78-.93s-3.49,.35-5.03,1.05c-1.54,.7-2.88,1.68-4.01,2.93-1.13,1.26-2.02,2.75-2.65,4.48-.64,1.73-.96,3.6-.96,5.62s.32,3.94,.96,5.65c.64,1.71,1.51,3.19,2.62,4.45,1.11,1.26,2.42,2.23,3.92,2.93,1.5,.7,3.12,1.05,4.85,1.05,1.98,0,3.72-.41,5.25-1.23,1.52-.82,2.78-1.98,3.77-3.46l8.03,5.99c-1.85,2.59-4.2,4.51-7.04,5.74-2.84,1.24-5.76,1.85-8.77,1.85-3.42,0-6.57-.54-9.45-1.61-2.88-1.07-5.37-2.6-7.47-4.6-2.1-2-3.74-4.41-4.91-7.25s-1.76-6.01-1.76-9.51,.59-6.67,1.76-9.51c1.17-2.84,2.81-5.26,4.91-7.25,2.1-2,4.59-3.53,7.47-4.6,2.88-1.07,6.03-1.6,9.45-1.6,1.24,0,2.52,.11,3.86,.34,1.34,.23,2.66,.59,3.95,1.08,1.3,.49,2.54,1.15,3.74,1.98,1.19,.82,2.26,1.83,3.21,3.02l-7.41,6.05Z"/><path class="cls-1" d="M170.76,22.97c0-3.5,.59-6.67,1.76-9.51,1.17-2.84,2.81-5.26,4.91-7.25,2.1-2,4.59-3.53,7.47-4.6,2.88-1.07,6.03-1.6,9.45-1.6s6.56,.54,9.45,1.6c2.88,1.07,5.37,2.6,7.47,4.6,2.1,2,3.74,4.41,4.91,7.25,1.17,2.84,1.76,6.01,1.76,9.51s-.59,6.67-1.76,9.51-2.81,5.26-4.91,7.25c-2.1,2-4.59,3.53-7.47,4.6-2.88,1.07-6.03,1.61-9.45,1.61s-6.57-.54-9.45-1.61c-2.88-1.07-5.37-2.6-7.47-4.6-2.1-2-3.74-4.41-4.91-7.25s-1.76-6.01-1.76-9.51Zm10,0c0,2.06,.32,3.94,.96,5.65,.64,1.71,1.55,3.19,2.75,4.45,1.19,1.26,2.62,2.23,4.29,2.93,1.67,.7,3.53,1.05,5.59,1.05s3.92-.35,5.59-1.05c1.67-.7,3.1-1.68,4.29-2.93,1.19-1.25,2.11-2.74,2.75-4.45,.64-1.71,.96-3.59,.96-5.65s-.32-3.89-.96-5.62c-.64-1.73-1.55-3.22-2.75-4.48-1.19-1.25-2.62-2.23-4.29-2.93-1.67-.7-3.53-1.05-5.59-1.05s-3.92,.35-5.59,1.05c-1.67,.7-3.1,1.68-4.29,2.93-1.19,1.26-2.11,2.75-2.75,4.48-.64,1.73-.96,3.6-.96,5.62Z"/></svg>