<svg width="191" height="36" viewBox="0 0 191 36" fill="none" xmlns="http://www.w3.org/2000/svg">
<g id="Logo" clip-path="url(#clip0_11_1435)">
<path id="Vector" d="M0.495778 36.0001C0.430244 35.6348 0.347615 35.2238 0.247889 34.7615C0.182355 34.3649 0.125369 33.9026 0.0740818 33.3718C0.0256437 32.8438 0 32.2474 0 31.5853C0 30.9232 0.0256437 30.3297 0.0740818 29.7989C0.12252 29.2709 0.182355 28.8058 0.247889 28.4091C0.347615 27.9468 0.430244 27.533 0.495778 27.1706H9.29442V16.7087C9.756 16.6089 9.75315 16.5261 10.3487 16.4605C10.8444 16.3948 11.4143 16.3435 12.0554 16.3121C12.6993 16.2778 13.4003 16.2635 14.161 16.2635C14.9873 16.2635 15.7281 16.2807 16.3892 16.3121C17.0502 16.3435 17.6115 16.3948 18.0731 16.4605C18.6344 16.5261 18.5974 16.6089 19.0276 16.7087V27.1734H28.0742C28.1739 27.5358 28.2565 27.9325 28.322 28.3634C28.4873 29.1882 28.5699 30.2298 28.5699 31.4883C28.5699 32.1817 28.5443 32.8039 28.4959 33.3489C28.4474 33.894 28.3876 34.3649 28.322 34.7615C28.2565 35.2238 28.1739 35.6376 28.0742 36.0001H0.495778Z" fill="white"/>
<path id="Vector_2" d="M52.8828 0.296753C52.9484 0.662032 53.031 1.07297 53.1307 1.53528C53.1963 1.93195 53.2532 2.39426 53.3045 2.92505C53.353 3.453 53.3786 4.04943 53.3786 4.7115C53.3786 5.37357 53.353 5.96714 53.3045 6.49794C53.2561 7.02588 53.1963 7.49104 53.1307 7.88772C53.031 8.35002 52.9484 8.76382 52.8828 9.12624H44.0842V19.5909C43.6226 19.6908 43.6255 19.7736 43.0299 19.8392C42.5342 19.9048 41.9672 19.9562 41.3232 19.9876C40.6793 20.0218 39.9783 20.0361 39.2176 20.0361C38.3913 20.0361 37.6505 20.019 36.9894 19.9876C36.3284 19.9562 36.2999 19.9048 35.8383 19.8392C35.277 19.7736 34.7812 19.6908 34.3538 19.5909V9.12339H25.3073C25.2076 8.76096 25.1249 8.36429 25.0594 7.93338C24.8942 7.10864 24.8115 6.06703 24.8115 4.80852C24.8115 4.11506 24.8372 3.49295 24.8856 2.94788C24.934 2.40282 24.991 1.93195 25.0594 1.53528C25.1249 1.07297 25.2076 0.659179 25.3073 0.296753H52.8828Z" fill="white"/>
<path id="Vector_3" d="M14.1805 9.78835C16.8793 9.78835 19.067 7.59715 19.067 4.89417C19.067 2.1912 16.8793 0 14.1805 0C11.4817 0 9.29395 2.1912 9.29395 4.89417C9.29395 7.59715 11.4817 9.78835 14.1805 9.78835Z" fill="#FF0000"/>
<path id="Vector_4" d="M39.0955 36C41.7943 36 43.9821 33.8088 43.9821 31.1058C43.9821 28.4029 41.7943 26.2117 39.0955 26.2117C36.3968 26.2117 34.209 28.4029 34.209 31.1058C34.209 33.8088 36.3968 36 39.0955 36Z" fill="#FF0000"/>
<path id="Vector_5" d="M70.7624 36.0001H62.6875V0.296875H70.7624V5.19676C73.6744 1.92922 77.7831 0.296875 83.0885 0.296875V8.71828C82.265 8.48142 81.2193 8.36156 79.9543 8.36156C78.7661 8.36156 77.5324 8.60698 76.2502 9.10068C74.7942 9.67143 73.5547 10.479 72.5347 11.5264C71.5118 12.5737 70.9248 13.7637 70.7653 15.0935V36.0001H70.7624Z" fill="white"/>
<path id="Vector_6" d="M102.939 36C100.469 36 98.158 35.5348 96.004 34.6074C93.8499 33.6799 91.958 32.4043 90.3282 30.7777C88.6984 29.1539 87.419 27.259 86.493 25.093C85.567 22.927 85.1025 20.6183 85.1025 18.1584C85.1025 15.6985 85.567 13.3698 86.493 11.2124C87.419 9.0578 88.6984 7.16006 90.3282 5.52771C91.958 3.89537 93.8499 2.61404 96.004 1.68657C98.158 0.759106 100.469 0.293945 102.939 0.293945C105.41 0.293945 107.7 0.759106 109.863 1.68657C112.026 2.61404 113.915 3.89537 115.539 5.52771C117.163 7.16006 118.437 9.0578 119.363 11.2124C120.289 13.3698 120.753 15.6842 120.753 18.1584C120.753 20.6326 120.289 22.927 119.363 25.093C118.437 27.259 117.163 29.1539 115.539 30.7777C113.915 32.4043 112.026 33.6799 109.863 34.6074C107.7 35.5348 105.395 36 102.939 36ZM102.939 27.9125C104.284 27.9125 105.546 27.6585 106.726 27.1505C107.905 26.6426 108.937 25.9463 109.826 25.0587C110.712 24.1712 111.41 23.1353 111.914 21.9539C112.422 20.7724 112.675 19.5082 112.675 18.1612C112.675 16.8143 112.422 15.5501 111.914 14.3686C111.407 13.1872 110.712 12.1484 109.826 11.2523C108.94 10.3563 107.905 9.65423 106.726 9.14626C105.546 8.6383 104.284 8.38431 102.939 8.38431C100.247 8.38431 97.9472 9.34032 96.041 11.2495C94.132 13.1615 93.1803 15.4645 93.1803 18.1584C93.1803 19.5054 93.4339 20.7724 93.9411 21.951C94.4482 23.1325 95.1492 24.1684 96.0438 25.0559C96.9385 25.9434 97.9757 26.6426 99.1553 27.1477C100.335 27.6557 101.597 27.9096 102.942 27.9096L102.939 27.9125Z" fill="white"/>
<path id="Vector_7" d="M140.75 36C138.279 36 135.969 35.5348 133.815 34.6074C131.66 33.6799 129.769 32.4043 128.139 30.7777C126.509 29.1539 125.23 27.259 124.304 25.093C123.378 22.927 122.913 20.6183 122.913 18.1584C122.913 15.6985 123.378 13.3698 124.304 11.2124C125.23 9.0578 126.509 7.16006 128.139 5.52771C129.769 3.89537 131.66 2.61404 133.815 1.68657C135.969 0.759106 138.279 0.293945 140.75 0.293945C143.22 0.293945 145.539 0.78479 147.802 1.76933C150.067 2.75387 152.044 4.14079 153.74 5.93295L147.873 11.4749C145.941 9.41452 143.568 8.38146 140.75 8.38146C139.405 8.38146 138.14 8.63544 136.963 9.14341C135.783 9.65138 134.746 10.3534 133.852 11.2495C132.957 12.1455 132.256 13.1843 131.749 14.3658C131.242 15.5472 130.988 16.8114 130.988 18.1584C130.988 19.5054 131.242 20.7724 131.749 21.951C132.256 23.1325 132.957 24.1684 133.852 25.0559C134.746 25.9434 135.783 26.6426 136.963 27.1477C138.143 27.6557 139.405 27.9096 140.75 27.9096C142.285 27.9096 143.719 27.5843 145.049 26.9337C146.38 26.283 147.52 25.347 148.468 24.1256L154.834 29.074C153.124 31.2628 151.036 32.9636 148.565 34.1765C146.095 35.3893 143.491 35.9972 140.753 35.9972L140.75 36Z" fill="white"/>
<path id="Vector_8" d="M173.189 36C170.719 36 168.408 35.5348 166.254 34.6074C164.1 33.6799 162.208 32.4043 160.578 30.7777C158.948 29.1539 157.669 27.259 156.743 25.093C155.817 22.927 155.353 20.6183 155.353 18.1584C155.353 15.6985 155.817 13.3698 156.743 11.2124C157.669 9.0578 158.948 7.16006 160.578 5.52771C162.208 3.89537 164.1 2.61404 166.254 1.68657C168.408 0.759106 170.719 0.293945 173.189 0.293945C175.66 0.293945 177.95 0.759106 180.113 1.68657C182.276 2.61404 184.165 3.89537 185.789 5.52771C187.413 7.16006 188.687 9.0578 189.613 11.2124C190.539 13.3698 191.003 15.6842 191.003 18.1584C191.003 20.6326 190.539 22.927 189.613 25.093C188.687 27.259 187.413 29.1539 185.789 30.7777C184.165 32.4043 182.276 33.6799 180.113 34.6074C177.95 35.5348 175.645 36 173.189 36ZM173.189 27.9125C174.534 27.9125 175.796 27.6585 176.976 27.1505C178.155 26.6426 179.187 25.9463 180.076 25.0587C180.962 24.1712 181.66 23.1353 182.164 21.9539C182.672 20.7724 182.925 19.5082 182.925 18.1612C182.925 16.8143 182.672 15.5501 182.164 14.3686C181.657 13.1872 180.962 12.1484 180.076 11.2523C179.19 10.3563 178.155 9.65423 176.976 9.14626C175.796 8.6383 174.534 8.38431 173.189 8.38431C170.497 8.38431 168.197 9.34032 166.291 11.2495C164.382 13.1615 163.43 15.4645 163.43 18.1584C163.43 19.5054 163.684 20.7724 164.191 21.951C164.698 23.1325 165.399 24.1684 166.294 25.0559C167.189 25.9434 168.226 26.6426 169.405 27.1477C170.585 27.6557 171.847 27.9096 173.192 27.9096L173.189 27.9125Z" fill="white"/>
</g>
<defs>
<clipPath id="clip0_11_1435">
<rect width="191" height="36" fill="white"/>
</clipPath>
</defs>
</svg>
