<?xml version="1.0" encoding="UTF-8"?><svg id="Capa_1" xmlns="http://www.w3.org/2000/svg" viewBox="0 0 263.48 247.28"><defs><style>.cls-1{fill:#fff;}</style></defs><path class="cls-1" d="M0,88.13c.76-.21,.62-.97,.82-1.47,2.42-6.03,7.14-9.35,13.64-9.42,4.89-.06,9.78-.07,14.66,.02,1.42,.03,1.89-.49,2.19-1.79,2.9-12.68,11.08-19.12,24.21-19.13q4.94,0,4.94-4.91c0-15.26,0-30.53,0-45.79C60.47,.99,61.44,0,65.99,0c43.82,0,87.64,0,131.46,0,4.56,0,5.53,.99,5.54,5.62,0,4.29,.03,8.58,0,12.86-.03,3.13-1.34,4.77-3.77,4.82-2.53,.05-3.91-1.63-3.95-4.9-.03-2.83-.13-5.67,.04-8.49,.11-1.86-.54-2.49-2.3-2.19-.08,.01-.17,0-.26,0-40.65,0-81.3,.02-121.95-.05-2.14,0-2.67,.51-2.66,2.66,.08,26.84,.08,53.68,0,80.53,0,1.99,.48,2.52,2.5,2.52,40.73-.06,81.47-.07,122.2,0,2.13,0,2.45-.7,2.44-2.58-.07-16.98-.04-33.96-.04-50.94,0-.77-.04-1.55,.03-2.31,.21-2.43,1.75-3.97,3.9-3.94,2.12,.03,3.73,1.61,3.77,4.05,.09,5.49,.12,10.98,0,16.46-.04,1.82,.48,2.34,2.28,2.26,3.25-.16,6.54-.23,9.72,.6,9.34,2.43,15.08,8.42,17.06,17.85,.4,1.89,1.03,2.5,2.96,2.43,4.63-.15,9.26-.09,13.89-.04,8.55,.1,14.57,6.09,14.59,14.59,.04,14.66,.04,29.33,0,43.99-.03,8.34-6.06,14.49-14.41,14.5-2.25,0-2.24,.77-1.91,2.48,2.97,15.12,5.89,30.24,8.78,45.37,.29,1.5,.36,3.06,.37,4.6,.04,7.12,.05,14.24,.01,21.35-.07,13.55-9.6,23.05-23.18,23.13-3.17,.02-6.35,0-9.52,0-37.99,0-75.98,0-113.97,0-.6,0-1.2,0-1.8,0-3.46-.02-5.28-1.36-5.25-3.86,.03-2.47,1.92-3.87,5.33-3.87,41.68,0,83.36,0,125.03,0,7.98,0,13.74-4.42,15.35-11.71,.15-.66,.21-1.35,.25-2.04,.05-.94-.02-1.89,.05-2.83,1.1-16.23-1.68-32.03-4.88-47.86-6.33-31.38-12.25-62.84-18.33-94.26-.03-.17-.04-.34-.07-.51-1.89-13.65-9.22-16.88-20.46-16.29-1.48,.08-2.02,.51-1.86,1.93,.06,.51,.07,1.04,0,1.54-.37,2.61,.38,4.13,3.09,5.37,6.12,2.79,9.23,9.95,7.72,16.37-1.6,6.83-7.22,11.55-14.06,11.78-2.14,.07-4.29,.04-6.43,.04-42.54,0-85.07-.02-127.61,.03-4.7,0-8.8-1.17-12.12-4.55-7.27-7.41-4.99-19.88,4.53-24.06,1.95-.86,2.44-1.8,2.39-3.75-.13-4.65-.04-4.65-4.79-4.65-9.74,0-15.19,4.24-16.98,13.28-1.46,7.39-2.83,14.79-4.27,22.19-6.25,32.27-12.5,64.53-18.77,96.79-.51,2.62-.86,5.22-.84,7.9,.06,6.69,0,13.38,.03,20.07,.05,8.99,6.18,15.19,15.18,15.21,18.78,.05,37.56,.01,56.34,.02,1.02,0,2.08,0,3.05,.26,2.02,.54,2.95,1.99,2.74,4.06-.19,1.95-1.34,3.09-3.3,3.34-.59,.08-1.2,.06-1.8,.06-18.95,0-37.9,.04-56.86-.01-11.84-.03-20.81-7.47-22.82-18.86-.27-1.51-.18-3.07-.28-4.61-1.2-17.62,1.57-34.82,5.38-51.93,1.43-6.43,2.56-12.93,3.84-19.39,.26-1.29,.43-2.14-1.54-2.12-6.94,.06-11.64-3.35-14.16-9.79-.15-.37-.12-.88-.68-.96v-23.67c1.58-1.41,3.14-2.93,5.52-1.76,2.26,1.11,2.24,3.19,2.22,5.31-.04,4.89-.01,9.77-.01,14.66,0,6.49,2.44,8.79,8.92,8.59,1.28-.04,1.7-.41,1.94-1.69,3.47-18.15,7-36.28,10.55-54.42,.23-1.18,.17-1.7-1.24-1.67-4.63,.08-9.26-.04-13.88,.08-3.55,.09-6.09,2.66-6.26,6.21-.11,2.31-.08,4.63-.02,6.94,.05,2.18-.21,4.13-2.6,5.04-2.43,.92-3.79-.6-5.14-2.19v-12.86Zm255.74,25.75c0-7.37,.04-14.74-.02-22.11-.03-4.14-2.61-6.73-6.75-6.79-4.45-.07-8.91,.02-13.37-.05-1.33-.02-1.55,.37-1.3,1.63,3.57,18.21,7.1,36.43,10.63,54.65,.13,.66,.06,1.38,1.05,1.47,5.4,.51,9.87-1.2,9.77-7.72-.1-7.02-.02-14.05-.02-21.08Zm-52.67-21.72c2.55-1.79,3.52-3.98,3.32-6.68-.17-2.26-1.05-4.14-3.32-5.32v12Zm-142.58-12.22c-2.77,1.9-3.68,4.22-3.39,7.02,.23,2.15,1.19,3.89,3.39,5.15v-12.17Z"/><path class="cls-1" d="M131.7,206.77c-26.5,0-52.99,.01-79.49,0-8.03,0-13.76-3.99-15.94-10.86-1.12-3.51-.48-6.92,.2-10.39,3.3-16.79,6.5-33.61,9.81-50.4,1.48-7.5,7.5-12.48,15.12-12.49,46.9-.03,93.81-.03,140.71,0,7.36,0,13.58,4.95,14.98,12.04,3.59,18.13,7.1,36.28,10.49,54.45,1.57,8.43-4.59,16.46-13.06,17.44-1.36,.16-2.74,.2-4.1,.2-26.24,.01-52.48,0-78.71,0Zm-13.41-7.72c7.46,0,14.92-.04,22.38,.03,1.53,.01,2.12-.32,2.02-1.99-.21-3.16-.21-6.34-.23-9.51,0-1.17-.35-1.66-1.61-1.65-14.84,.04-29.67,.04-44.51,0-1.24,0-1.6,.45-1.67,1.63-.18,3.08-.34,6.17-.79,9.22-.28,1.86,.17,2.34,2.03,2.32,7.46-.1,14.92-.04,22.38-.04Zm41.81,0c2.66,0,5.31-.06,7.97,.03,1.42,.05,1.72-.43,1.56-1.8-.38-3.23-.65-6.48-.85-9.72-.07-1.18-.42-1.64-1.67-1.63-5.14,.06-10.28,.06-15.42,0-1.26-.02-1.62,.39-1.57,1.62,.14,3.25,.21,6.51,.22,9.76,0,1.32,.44,1.81,1.79,1.77,2.65-.08,5.31-.02,7.97-.02Zm26.63,0c2.57,0,5.15-.08,7.72,.03,1.45,.06,1.76-.48,1.55-1.8-.53-3.3-1.06-6.6-1.43-9.92-.15-1.35-.81-1.43-1.86-1.43-4.89,.03-9.78,.07-14.66-.02-1.48-.03-1.7,.55-1.57,1.81,.34,3.24,.67,6.48,.86,9.73,.08,1.42,.72,1.65,1.94,1.61,2.48-.07,4.97-.02,7.46-.02Zm-110.2,0c2.66,0,5.32-.04,7.97,.02,1.08,.03,1.5-.32,1.58-1.43,.24-3.42,.56-6.83,.9-10.24,.11-1.13-.27-1.48-1.4-1.47-5.06,.05-10.12,.03-15.18,.01-.9,0-1.37,.21-1.5,1.24-.42,3.4-.91,6.79-1.47,10.17-.24,1.46,.31,1.77,1.64,1.72,2.48-.08,4.97-.02,7.46-.02Zm55.78-39.82c2.62-.25,5.86,.4,9.06-.3-.05-3.07-.1-6.15-.15-9.22,0-.09-.02-.17-.01-.26,.07-1.07-.38-1.5-1.5-1.49-5.32,.05-10.63,.04-15.95,0-1.12,0-1.51,.4-1.53,1.48-.05,2.74-.12,5.49-.29,8.23-.08,1.24,.3,1.63,1.55,1.59,2.74-.09,5.49-.03,8.83-.03Zm13.24,19.01c2.73,0,5.47-.06,8.2,.02,1.28,.04,1.83-.24,1.69-1.68-.27-2.72-.44-5.45-.49-8.18-.03-1.34-.64-1.48-1.74-1.47-5.3,.04-10.6,.06-15.89,0-1.35-.02-1.79,.42-1.76,1.76,.08,2.65,.11,5.3,0,7.94-.06,1.46,.57,1.67,1.8,1.64,2.73-.07,5.47-.02,8.2-.02Zm-27.67,0c2.82,0,5.64-.03,8.46,.02,1.01,.02,1.57-.15,1.54-1.37-.08-2.82-.05-5.64-.01-8.46,.02-1.08-.36-1.5-1.48-1.5-5.47,.04-10.94,.03-16.41,0-.89,0-1.43,.12-1.47,1.21-.11,2.9-.28,5.8-.52,8.7-.1,1.19,.35,1.44,1.43,1.42,2.82-.06,5.64-.02,8.46-.02Zm93.01,7.72c-1.63,0-3.26,0-4.88,0q-3.8,0-3.34,3.64c.09,.68,.08,1.38,.24,2.04,.57,2.39-.27,5.83,1.49,6.98,1.83,1.19,4.96,.45,7.51,.42,4.5-.06,7.53-2.58,8.18-6.61,.26-1.58-.35-3.05-.49-4.58-.12-1.38-.68-2.08-2.28-1.94-2.13,.18-4.28,.05-6.42,.05Zm-158.08,0c-2.31,0-4.63-.03-6.94,.02-.6,.01-1.36-.35-1.71,.63-2.19,6.23-.01,11.88,6.6,12.4,2.39,.19,4.8,0,7.2,.07,1.17,.03,1.62-.36,1.76-1.58,.38-3.32,.9-6.62,1.42-9.91,.19-1.19-.05-1.71-1.39-1.65-2.31,.1-4.63,.03-6.94,.03Zm38.01-7.71c2.65,0,5.3-.03,7.95,.02,1.06,.02,1.51-.3,1.55-1.43,.09-2.73,.28-5.46,.48-8.19,.08-1.09,0-1.74-1.41-1.72-5.04,.08-10.09,.04-15.13,.02-.9,0-1.38,.19-1.48,1.23-.26,2.89-.61,5.78-1.01,8.65-.16,1.17,.25,1.46,1.36,1.44,2.56-.06,5.13-.02,7.7-.02Zm81.7,0c2.57,0,5.13-.07,7.69,.03,1.28,.05,1.64-.34,1.45-1.6-.4-2.79-.76-5.59-.99-8.4-.1-1.2-.65-1.35-1.64-1.34-4.96,.03-9.92,.05-14.88-.01-1.26-.02-1.64,.37-1.53,1.61,.23,2.64,.45,5.29,.47,7.93,.01,1.52,.6,1.86,1.98,1.8,2.48-.1,4.96-.03,7.44-.03Zm-66.96-19.01c2.31,0,4.63-.07,6.93,.03,1.28,.05,1.81-.25,1.78-1.66-.04-2.56,.06-5.14,.25-7.7,.11-1.43-.24-1.98-1.78-1.95-4.28,.09-8.56,.08-12.84,0-1.28-.02-1.88,.31-1.96,1.65-.17,2.73-.41,5.46-.7,8.18-.12,1.13,.23,1.5,1.38,1.46,2.31-.08,4.62-.02,6.93-.02Zm51.99,0c2.4,0,4.79-.03,7.19,.02,1.02,.02,1.6-.12,1.46-1.37-.31-2.81-.55-5.62-.74-8.44-.09-1.26-.73-1.49-1.85-1.47-4.37,.05-8.73,.05-13.1,0-1.19-.01-1.69,.3-1.61,1.6,.18,2.73,.3,5.47,.27,8.21-.01,1.37,.59,1.51,1.7,1.48,2.22-.06,4.45-.02,6.68-.02Zm24.47,0c2.31,0,4.61-.07,6.92,.03,1.27,.05,1.66-.32,1.45-1.59-.44-2.69-.81-5.4-1.12-8.11-.15-1.34-.83-1.63-2.06-1.6-2.73,.08-5.46,.02-8.2,.02q-6.07,0-5.49,5.95,.52,5.29,5.93,5.29c.85,0,1.71,0,2.56,0Zm-100.96,0c2.3,0,4.61-.03,6.91,.01,1,.02,1.54-.17,1.6-1.36,.14-2.81,.38-5.62,.7-8.42,.13-1.17-.24-1.51-1.36-1.5-4.35,.04-8.71,.05-13.06,0-1.12-.01-1.5,.5-1.63,1.48-.37,2.79-.73,5.58-1.16,8.36-.18,1.15,.21,1.49,1.34,1.45,2.22-.07,4.44-.02,6.66-.02Zm132.98,0c-.67-3.38-1.36-6.46-1.86-9.57-.2-1.25-.6-1.74-1.92-1.71-3.93,.08-7.85,.06-11.78,0-1.25-.02-1.66,.36-1.46,1.63,.44,2.78,.8,5.57,1.12,8.37,.11,.98,.55,1.29,1.49,1.28,4.69-.03,9.37-.01,14.41-.01Zm-156.95,0c2.13,0,4.27,0,6.4,0,.88,0,1.68,.07,1.82-1.19,.31-2.8,.7-5.59,1.12-8.37,.17-1.15,0-1.74-1.37-1.71-4.01,.07-8.03,.05-12.04,0-1.01,0-1.5,.26-1.68,1.37-.46,2.86-1,5.71-1.67,8.53-.33,1.36,.29,1.39,1.27,1.38,2.05-.03,4.1,0,6.15,0Zm87.35-18.97c2.4,0,4.8-.07,7.19,.03,1.41,.06,1.76-.44,1.61-1.78-.23-2.12-.41-4.27-.4-6.4,0-1.52-.59-1.85-1.98-1.8-2.65,.1-5.31-.02-7.96,.04-2.38,.06-5.62-1.03-6.89,.43-1.2,1.4-.27,4.56-.45,6.93-.15,1.92,.32,2.79,2.46,2.59,2.12-.2,4.28-.04,6.41-.04Zm-25.5,0c2.48,0,4.96-.04,7.45,.02,1.1,.03,1.52-.33,1.49-1.46-.07-2.31-.08-4.62,0-6.93,.05-1.26-.38-1.59-1.61-1.58-4.71,.07-9.41,.05-14.12,0-1.11-.01-1.48,.36-1.51,1.46-.06,2.22-.16,4.45-.42,6.66-.18,1.53,.37,1.91,1.8,1.85,2.31-.1,4.62-.03,6.93-.03Zm50.21,0c2.22,0,4.44-.03,6.66,.01,1.14,.02,1.7-.16,1.46-1.56-.4-2.26-.62-4.57-.77-6.86-.08-1.24-.6-1.55-1.76-1.54-4.18,.06-8.37,.07-12.55,0-1.31-.02-1.83,.28-1.68,1.68,.24,2.29,.38,4.59,.44,6.9,.03,1.15,.49,1.42,1.55,1.39,2.22-.07,4.44-.02,6.66-.02Zm-74.91,0c2.22,0,4.44-.03,6.66,.01,.98,.02,1.58-.1,1.61-1.32,.06-2.39,.24-4.77,.44-7.15,.09-1.08-.18-1.51-1.36-1.49-4.35,.06-8.71,.05-13.06,0-1.11-.01-1.47,.4-1.55,1.47-.18,2.3-.38,4.6-.77,6.86-.23,1.31,.12,1.67,1.38,1.63,2.22-.07,4.44-.02,6.66-.02Zm-26.06,37.98q5.78,0,6.38-5.83c.03-.26,.04-.51,.06-.77q.4-4.7-4.29-4.7-5.85,0-6.86,5.77-.97,5.53,4.72,5.53Zm127.01,0c.26,0,.51,0,.77,0q4.88,0,4.14-4.93-.96-6.37-7.38-6.37-4.29,0-3.9,4.35c.04,.43,.05,.85,.1,1.28q.61,5.67,6.26,5.67Zm-144.93,0q4.67,0,5.3-4.6c.14-1.02,.34-2.02,.48-3.04q.53-3.66-3.29-3.66-4.76,0-5.71,4.55c-.16,.75-.25,1.52-.41,2.27q-.92,4.47,3.63,4.47Zm162.62,0c1.2,0,2.4-.03,3.6,0,.84,.02,1.27-.17,1.06-1.16-.64-3.01-1.25-6.03-1.83-9.05-.13-.65-.29-1.12-1.09-1.1-2.48,.07-5.28-.57-7.3,.41-1.07,.52,.33,3.71,.53,5.71,.03,.34,.06,.68,.11,1.02q.62,4.16,4.92,4.15Zm-22.94-37.97c.77,0,1.55-.08,2.3,.02,1.95,.25,2.84-.29,2.27-2.45-.39-1.48-.7-3.02-.7-4.54,0-2.62-1.27-3.38-3.63-2.96-.25,.04-.51,0-.77,0q-5.26,0-4.74,5.2,.47,4.73,5.27,4.73Zm-116.41,0q4.76,0,5.25-4.75c.03-.34,.08-.68,.12-1.02q.6-4.16-3.61-4.16-5.15,0-5.89,5.01t4.13,4.92Zm132.77,0c.94,0,1.88,0,2.82,0,.51,0,.94-.01,1.06-.75,.64-4.08-3.39-8.94-7.57-9.18-1.44-.08-1.54,.5-1.31,1.63,.32,1.59,.59,3.19,.84,4.79,.55,3.51,.54,3.52,4.16,3.51Zm-149.26,0q3.7,0,4.28-3.68c.24-1.52,.44-3.05,.81-4.54,.42-1.69-.36-1.86-1.73-1.68-3.12,.42-5.55,2.56-6.45,5.78q-1.15,4.11,3.09,4.11Z"/><path class="cls-1" d="M132.01,39.52c16.45,0,32.91,0,49.36,0,.86,0,1.72-.03,2.56,.1,2.07,.31,3.24,1.63,3.3,3.65,.06,2.03-1.05,3.4-3.09,3.82-.83,.17-1.7,.16-2.55,.16-33.25,0-66.5,0-99.76,0-.68,0-1.38,.02-2.05-.07-2.2-.3-3.75-1.96-3.57-3.96,.19-2.15,1.42-3.43,3.61-3.65,.85-.09,1.71-.05,2.57-.05,16.54,0,33.08,0,49.62,0Z"/><path class="cls-1" d="M132.02,77.22c16.63,0,33.25,0,49.88,0,1.36,0,2.77-.18,3.91,.84,1.1,.97,1.7,2.18,1.39,3.66-.33,1.53-1.24,2.66-2.82,3-.91,.2-1.86,.22-2.8,.22-33.25,.01-66.51,0-99.76,0-.43,0-.86,.02-1.29,0-2.7-.13-4.44-1.76-4.34-4.05,.09-2.18,1.77-3.65,4.4-3.66,17.14-.02,34.28-.01,51.42-.01Z"/><path class="cls-1" d="M124.75,20.7c14.31,0,28.62,0,42.92,0,.69,0,1.38-.05,2.05,.02,2.19,.24,3.48,1.54,3.58,3.67,.1,2.16-1.18,3.51-3.29,3.95-.74,.15-1.54,.07-2.31,.07-28.62,0-57.23,0-85.85,0-.69,0-1.38,.05-2.05-.03-2.17-.25-3.67-1.93-3.62-3.96,.06-2.03,1.62-3.59,3.84-3.71,1.37-.08,2.74-.02,4.11-.02,13.54,0,27.07,0,40.61,0Z"/><path class="cls-1" d="M100.86,66.04c-6.6,0-13.2,0-19.8,0-3.04,0-4.8-1.37-4.86-3.72-.07-2.46,1.76-3.99,4.9-3.99,13.2-.01,26.4-.02,39.6,0,3.68,0,5.76,2.79,4.29,5.62-.85,1.64-2.3,2.11-4.07,2.1-6.69-.04-13.37-.01-20.06-.01Z"/></svg>