<?xml version="1.0" encoding="UTF-8"?><svg id="Capa_1" xmlns="http://www.w3.org/2000/svg" viewBox="0 0 285.11 269.77"><defs><style>.cls-1{fill:#fff;}</style></defs><path class="cls-1" d="M285.1,266.27c-1.54,2.68-3.81,3.5-6.9,3.5-90.38-.07-180.76-.06-271.15-.06-5.6,0-7.05-1.46-7.05-7.08v-77.67c0-5.22,1.55-6.77,6.79-6.77,22.27,0,44.54-.03,66.81,.04,2.09,0,3.02-.38,2.77-2.68-.22-2.02-.05-4.08-.04-6.12,.02-4.79,1.78-6.61,6.51-6.62,7.33-.02,14.66-.1,21.99,.05,2.13,.05,2.16-.92,2.1-2.46-.06-1.46,.34-2.75-2.11-2.74-24.13,.1-48.25,.06-72.38,.06-5.46,0-6.94-1.46-6.94-6.89V6.91c0-5.47,1.44-6.91,6.89-6.91H252.6c5.61,0,7,1.4,7,7.08V150.72c0,5.58-1.44,7-7.11,7h-71.54c-2.43,0-3.81,2.28-2.72,4.52,.51,1.03,1.48,.53,2.22,.53,7.24,.04,14.48,0,21.71,.03,4.78,0,6.59,1.82,6.62,6.52,0,1.95,.16,3.91-.04,5.84-.23,2.34,.36,3.11,2.94,3.09,22.18-.12,44.36-.02,66.53-.13,3.1-.02,5.37,.81,6.9,3.5v84.64h-.01Zm-142.41-77.95c-43.24,0-86.48,.02-129.72-.05-2.27,0-2.92,.47-2.9,2.84,.1,21.9,.1,43.8,0,65.69-.01,2.35,.61,2.85,2.89,2.85,86.39-.06,172.77-.06,259.16,0,2.27,0,2.92-.47,2.9-2.84-.1-21.8-.11-43.61,0-65.41,.01-2.58-.69-3.14-3.18-3.13-43.05,.08-86.11,.06-129.16,.06h.01Zm-.15-178.2c-34.7,0-69.4,.02-104.11-.06-2.29,0-2.87,.49-2.86,2.83,.08,43.98,.08,87.96,0,131.94,0,2.34,.59,2.84,2.88,2.84,69.4-.07,138.81-.07,208.21,0,2.32,0,2.86-.54,2.86-2.86-.08-43.98-.08-87.96,0-131.94,0-2.37-.62-2.82-2.88-2.81-34.7,.08-69.4,.06-104.11,.06h0Zm-.03,162.94c-17.81,0-35.61,.03-53.42-.04-2.01,0-2.69,.4-2.69,2.56s.8,2.53,2.76,2.53c35.62-.05,71.23-.06,106.85,0,2.06,0,2.65-.49,2.69-2.6,.04-2.28-.86-2.5-2.76-2.49-17.81,.06-35.61,.04-53.42,.04h-.01Zm.02-10.34c7.79,0,15.59-.08,23.38,.05,2.02,.03,2.28-.79,2.17-2.43-.1-1.37,.31-2.65-2.01-2.64-15.68,.1-31.36,.1-47.04,0-2.29-.02-1.94,1.22-2.03,2.62-.1,1.61,.09,2.49,2.15,2.45,7.79-.13,15.59-.05,23.38-.05h0Z"/><path class="cls-1" d="M71.1,234.08H21.86c-5,0-6.6-1.62-6.62-6.69-.02-5.84-.03-11.68,0-17.53,.03-4.42,1.85-6.31,6.26-6.32,33.2-.03,66.4-.03,99.6,0,4.27,0,6.15,1.9,6.19,6.1,.06,6.12,.06,12.24,0,18.36-.04,4.33-1.81,6.07-6.12,6.07-16.69,.02-33.38,0-50.08,0h.01Zm-.11-10.13c12.99,0,25.98,.02,38.96-.02,2.29,0,5.41,1.03,6.65-.43,1.16-1.36,.23-4.41,.47-6.68,.26-2.37-.41-3.06-2.94-3.05-27,.11-53.99,.06-80.99,.09-2.47,0-5.85-1.08-7.17,.46-1.26,1.47-.29,4.75-.5,7.22-.17,1.92,.4,2.47,2.38,2.46,14.38-.09,28.76-.05,43.14-.05h0Z"/><path class="cls-1" d="M249.49,239.17c-11.22,0-20.32-9.01-20.4-20.22s9.29-20.58,20.49-20.49c11.16,.09,20.28,9.3,20.26,20.44-.02,11.19-9.13,20.25-20.35,20.27h0Zm10.09-20.37c-.03-5.61-4.43-10.02-10.04-10.06-5.73-.04-10.22,4.44-10.2,10.18,.02,5.71,4.57,10.16,10.31,10.08,5.56-.08,9.95-4.59,9.92-10.2h0Z"/><path class="cls-1" d="M142.54,15.17h94.65c5.69,0,7.22,1.55,7.22,7.3v112.74c0,5.86-1.51,7.34-7.48,7.34H48.19c-6.08,0-7.5-1.44-7.5-7.6V22.49c0-5.78,1.51-7.31,7.2-7.31h94.65Zm-.06,117.07c29.6,0,59.21-.02,88.81,.05,2.2,0,2.99-.4,2.98-2.82-.08-33.78-.08-67.56,0-101.33,0-2.4-.77-2.84-2.98-2.84-59.11,.06-118.23,.07-177.34-.02-2.7,0-3.12,.87-3.11,3.28,.07,33.5,.09,67-.02,100.5,0,2.82,.85,3.26,3.41,3.25,29.42-.09,58.83-.06,88.25-.06h0Z"/></svg>