<?xml version="1.0" encoding="UTF-8"?><svg id="Capa_1" xmlns="http://www.w3.org/2000/svg" viewBox="0 0 176.05 195.67"><defs><style>.cls-1{fill:#fff;}</style></defs><path class="cls-1" d="M10.45,195.67c-.13-.12-.24-.3-.4-.35-6.93-2.3-10.05-6.51-10.05-13.72V43.49c0-8.83,5.31-14.14,14.15-14.06,1.67,.01,2.29-.29,2.61-2.11C19.71,10.77,33.38-.35,50.09,0c15.29,.34,28.92,12.41,30.98,27.59,.21,1.53,.72,1.81,2.11,1.8,26.36-.04,52.73-.03,79.09-.02,6.89,0,11.96,3.82,13.47,10.1,.33,1.38,.31,2.78,.31,4.18V181.39c0,7.61-3.43,12.12-10.6,14-.09,.02-.15,.18-.23,.27H10.45Zm77.57-35.89c24.52,0,49.04-.08,73.55,.07,4.85,.03,8.05-2.68,8.03-8.04-.13-35.98-.07-71.95-.07-107.93,0-.57,0-1.15-.02-1.72-.18-3.58-2.81-6.23-6.41-6.23-26.81-.03-53.62,0-80.43-.04-1.02,0-1.38,.25-1.55,1.33-1.78,11.12-7.7,19.31-17.67,24.52-1.12,.59-1.51,1.16-1.51,2.42,.06,10,.11,20-.03,29.99-.03,2.17,.39,3.48,2.55,4.29,1.51,.57,2.89,1.6,4.21,2.59,12.34,9.3,12.79,25.28,1.04,35.24-11.35,9.61-30.37,9.65-41.65-.03-6.8-5.84-10-13.16-7.88-22.11,1.83-7.72,7.09-12.76,14.02-16.14,1.33-.65,1.67-1.35,1.66-2.72-.05-10.32-.05-20.63,0-30.95,0-1.29-.28-2.05-1.55-2.62-1.61-.73-3.13-1.7-4.56-2.74-7.39-5.42-11.7-12.74-13.15-21.76-.1-.6,.07-1.21-.93-1.3-6.1-.57-9.21,2.32-9.19,7.96,.11,36.04,.06,72.08,.06,108.12,0,5.47,2.32,7.81,7.73,7.81H88.02Zm-81.48,4.72v16.78c0,5.54,2.34,7.87,7.89,7.87H161.72c.57,0,1.15,.02,1.72-.02,3.07-.23,5.87-2.54,5.95-5.46,.18-6.28,.05-12.57,.05-19.16-3.29,2.11-6.82,1.78-10.3,1.78-47.95,0-95.9,0-143.86,0-2.94,0-5.84-.09-8.76-1.8h.02ZM48.06,58.69c13.8,.76,26.09-10.5,26.91-24.67,.83-14.18-10.26-26.63-24.47-27.47-14.59-.86-26.8,10.18-27.69,25.03-.85,14.13,10.48,26.29,25.25,27.1h0Zm-5.67,31.53c0,7.89-.04,15.77,.02,23.66,.03,3.96,2.82,6.81,6.47,6.82,3.63,.02,6.54-2.85,6.55-6.77,.05-16.03,0-32.06,.04-48.09,0-1.05-.24-1.26-1.3-1.06-3.34,.64-6.73,.7-10.05,.08-1.56-.29-1.77,.08-1.76,1.51,.06,7.95,.03,15.9,.03,23.85h0Zm19.59,14.38v8.94c0,2.45-.48,4.79-1.7,6.96-2.85,5.07-8.52,7.6-14.29,6.37-5.41-1.15-9.6-5.86-10.02-11.56-.23-3.1-.13-6.23-.12-9.35,0-1.08-.08-1.59-1.32-.88-7.11,4.12-12.74,15.35-3.98,24.54,4.94,5.18,11.22,7.27,18.23,7.29,7.3,.02,13.81-2.15,18.83-7.68,7.08-7.79,4.25-20.55-5.63-24.65v.02Z"/><path class="cls-1" d="M124.1,48.92c2.1,0,4.2-.04,6.3,0,3.75,.08,6.47,2.79,6.54,6.54,.05,2.8,.06,5.6,0,8.4-.03,1.06,.25,1.43,1.37,1.4,2.74-.08,5.48-.06,8.21-.02,4.02,.07,6.69,2.67,6.76,6.7,.08,4.2,.08,8.4,0,12.6-.08,4.1-2.83,6.71-6.95,6.75-2.67,.02-5.35,.05-8.02-.02-1.07-.03-1.41,.26-1.38,1.36,.08,2.67,.04,5.35,.02,8.02-.03,4.13-2.62,6.86-6.74,6.94-4.2,.09-8.41,.09-12.61,0-4.14-.09-6.67-2.77-6.71-6.95-.03-2.61-.08-5.22,.03-7.83,.05-1.31-.4-1.59-1.61-1.55-2.61,.09-5.22,.05-7.83,.02-4.2-.04-6.91-2.75-6.93-6.95-.03-4.07-.03-8.15,0-12.22,.03-4.15,2.64-6.82,6.76-6.88,2.74-.04,5.48-.06,8.21,.01,1.09,.03,1.42-.33,1.4-1.41-.07-2.74-.05-5.47-.01-8.21,.06-4.03,2.71-6.68,6.71-6.73,2.16-.03,4.33,0,6.49,0v.03Zm15.44,35.89c1.91,0,3.82-.07,5.73,.02,1.15,.05,1.55-.25,1.52-1.47-.08-3.37-.08-6.75,0-10.12,.03-1.18-.32-1.52-1.5-1.5-3.63,.07-7.26,.05-10.88,.02-2.78-.02-3.95-1.2-3.96-3.96-.02-3.63-.04-7.26,.02-10.88,.02-1.08-.13-1.57-1.41-1.54-3.43,.1-6.87,.08-10.31,0-1.12-.02-1.37,.35-1.35,1.4,.06,3.63,.04,7.26,.02,10.88-.02,2.87-1.21,4.07-4.06,4.09-3.63,.02-7.26,.04-10.88-.01-1.02-.01-1.46,.17-1.43,1.33,.08,3.44,.09,6.88,0,10.31-.03,1.26,.42,1.46,1.53,1.44,3.56-.06,7.13-.03,10.69-.02,3.03,0,4.15,1.12,4.16,4.13,.01,3.63,.04,7.26-.02,10.88-.01,1,.29,1.31,1.29,1.3,3.44-.05,6.88-.07,10.31,0,1.2,.03,1.5-.35,1.47-1.51-.07-3.75-.05-7.51-.02-11.27,.02-2.3,1.24-3.5,3.55-3.54,1.85-.03,3.69,0,5.54,0v.02Z"/><path class="cls-1" d="M104.37,120.69c4.34,0,8.28,1.2,11.67,3.95,5.8,4.7,6.11,12.41,.73,17.48-6.55,6.18-18.43,6.15-24.93-.07-5.18-4.95-5.08-12.19,.27-16.95,3.48-3.1,7.65-4.41,12.26-4.42h0Zm-.2,19.58c2.99-.1,5.8-.74,8.09-2.81,2.45-2.22,2.44-5.2,.04-7.48-3.9-3.7-12.07-3.68-15.97,.05-2.36,2.26-2.39,5.07,0,7.33,2.19,2.08,4.94,2.74,7.85,2.91h-.01Z"/><path class="cls-1" d="M143.48,120.7c4.4,.01,8.42,1.19,11.82,4.06,6.17,5.23,5.92,13.43-.51,18.34-6.46,4.93-16.36,4.87-22.77-.14-6.53-5.11-6.44-13.72,.22-18.69,3.32-2.48,7.1-3.6,11.23-3.57h.01Zm.05,6.51c-3.04,.03-5.82,.75-8.07,2.86-2.3,2.16-2.31,4.99-.11,7.21,3.88,3.91,12.31,3.92,16.23,.02,2.24-2.23,2.26-5-.05-7.2-2.24-2.13-5.02-2.86-8-2.89h0Z"/><path class="cls-1" d="M29.36,31.88c.53-10.04,7.9-17.77,17.92-18.78,.57-.06,1.15-.1,1.71-.05,1.81,.13,3.11,1.49,3.14,3.21,.03,1.77-1.16,3.14-3.04,3.25-2.99,.17-5.76,.92-8.15,2.79-2.89,2.27-4.58,5.21-4.98,8.87-.05,.44-.07,.89-.13,1.33-.27,2.22-1.71,3.57-3.57,3.37-1.92-.21-3.04-1.74-2.92-3.99h.02Z"/></svg>