<?xml version="1.0" encoding="UTF-8"?><svg id="Capa_1" xmlns="http://www.w3.org/2000/svg" viewBox="0 0 234.8 234.71"><defs><style>.cls-1{fill:#fff;}</style></defs><path class="cls-1" d="M157.51,207.98c.2,1.17,1.01,1.56,1.56,2.12,4.93,4.97,9.9,9.9,14.83,14.87,2.65,2.68,2.85,5.92,.58,8.16-2.33,2.29-5.45,2.09-8.17-.61-7.67-7.65-15.34-15.3-22.96-23-1.07-1.08-2.14-1.57-3.7-1.57-14.83,.06-29.67,.06-44.5,0-1.56,0-2.63,.47-3.71,1.56-7.56,7.64-15.2,15.21-22.78,22.83-1.48,1.49-3.07,2.58-5.26,2.29-2.06-.28-3.61-1.4-4.31-3.35-.81-2.22-.3-4.24,1.41-5.95,5.08-5.06,10.15-10.12,15.2-15.21,.56-.56,1.34-.98,1.56-1.9-.78-.5-1.62-.23-2.4-.23-15.83-.02-31.67,.04-47.5-.03-13.43-.06-23.81-8.31-26.71-21.08C.13,184.6,0,182.26,0,179.92,0,141.75,0,103.58,0,65.42,0,48.74,11.42,37.35,28.09,37.34H103.88c.14-.99-.71-1.28-1.17-1.74-8.64-8.68-17.29-17.36-25.98-25.99-1.78-1.76-2.48-3.78-1.68-6.11,.66-1.95,2.2-3.12,4.25-3.44,2.19-.34,3.8,.74,5.28,2.23,10.23,10.28,20.53,20.49,30.69,30.83,1.63,1.66,2.43,1.86,4.18,.07,10.15-10.36,20.45-20.56,30.68-30.84,1.48-1.49,3.07-2.61,5.26-2.29,2.04,.29,3.6,1.42,4.29,3.38,.75,2.11,.39,4.11-1.25,5.76-4.06,4.08-8.12,8.15-12.18,12.21-5.17,5.18-10.35,10.34-15.96,15.95h3.08c24.75,0,49.5-.03,74.25,0,13.14,.03,23.6,8.38,26.46,21.06,.45,2.01,.66,4.13,.67,6.19,.04,38.67,.07,77.34,0,116-.03,13.9-8.96,24.59-22.3,26.99-1.95,.35-3.98,.36-5.97,.36-15.5,.03-31,.02-46.5,.02h-2.47Zm-40.12-10.64h89.25c10.76,0,17.36-6.51,17.37-17.18,.02-38.33,0-76.67,0-115,0-1.57-.04-3.19-.39-4.71-1.81-7.78-8.14-12.48-16.74-12.48-31.16,0-62.32,0-93.49,0H28.14c-10.72,0-17.37,6.58-17.37,17.21-.01,38.33-.01,76.67,0,115,0,1.57,.03,3.19,.39,4.71,1.76,7.63,8.06,12.45,16.23,12.45,30,.02,60,0,90,0Z"/><path class="cls-1" d="M96.09,58.72c15.75,0,31.49-.05,47.24,0,13.49,.05,23.84,8.19,26.74,20.99,.46,2.01,.67,4.12,.67,6.19,.04,24.49,.09,48.99,0,73.48-.05,13.38-8.42,23.8-21.17,26.69-2.28,.52-4.61,.65-6.95,.65-31.08,0-62.15,.02-93.23,0-16.64,0-28.01-11.47-28.01-28.15,0-24.24-.03-48.49,.01-72.73,.02-13.62,8.92-24.3,22.23-26.75,1.95-.36,3.98-.36,5.97-.36,15.5-.03,30.99-.02,46.49-.02h0Zm-.1,117.25c15.58,0,31.16,0,46.74,0,10.77,0,17.26-6.48,17.27-17.23,.02-24,0-47.99,0-71.99,0-10.9-6.51-17.39-17.4-17.39H49.61c-10.99,0-17.6,6.56-17.6,17.52,0,23.83,.15,47.66-.07,71.49-.1,10.78,7.74,17.91,17.55,17.7,15.49-.33,30.99-.09,46.49-.09h0Z"/><path class="cls-1" d="M197.58,69.34c8.83,.09,15.93,7.39,15.81,16.25-.12,8.81-7.43,15.87-16.32,15.75-8.68-.12-15.73-7.37-15.68-16.13,.05-8.82,7.33-15.96,16.19-15.87h0Zm-.12,21.35c2.83-.05,5.26-2.49,5.28-5.3,.02-2.92-2.52-5.44-5.43-5.4-2.9,.04-5.41,2.68-5.28,5.55,.13,2.83,2.63,5.2,5.43,5.15Z"/><path class="cls-1" d="M197.51,111.96c3.25,0,6.49-.04,9.74,0,3.77,.05,6.17,2.21,6.13,5.43-.04,3.13-2.38,5.28-6,5.31-6.66,.06-13.32,.06-19.98,0-3.64-.03-5.97-2.17-6.01-5.3-.04-3.23,2.34-5.38,6.12-5.44,3.33-.05,6.66,0,9.99,0h0Z"/><path class="cls-1" d="M197.37,143.97c-3.41,0-6.82,.04-10.23,0-3.43-.06-5.72-2.19-5.74-5.24-.02-3.12,2.38-5.34,5.91-5.36,6.73-.03,13.47-.03,20.2,0,3.51,.02,5.91,2.28,5.87,5.4-.05,3.04-2.33,5.15-5.78,5.2-3.41,.05-6.82,0-10.23,0h0Z"/><path class="cls-1" d="M197.42,165.35c-3.33,0-6.65,.02-9.98,0-3.57-.03-5.98-2.14-6.04-5.23-.06-3.14,2.28-5.35,5.86-5.37,6.73-.04,13.47-.04,20.2,0,3.59,.02,5.94,2.19,5.92,5.31-.02,3.11-2.43,5.26-5.98,5.29-3.33,.03-6.65,0-9.98,0h0Z"/></svg>