<?xml version="1.0" encoding="UTF-8"?><svg id="Capa_1" xmlns="http://www.w3.org/2000/svg" viewBox="0 0 191.55 191.59"><defs><style>.cls-1{fill:#fff;}</style></defs><path class="cls-1" d="M102.84,191.59h-1.12c-.37-.6-.75-.44-1.12,0h-9.73c-.37-.44-.75-.6-1.12,0h-1.87c-1.58-.8-3.33-.61-5-.84-18.74-2.64-35.52-9.83-49.62-22.45C6.1,144-4.44,113.6,1.69,77.75c3.53-20.6,13.49-38.05,28.89-52.16C52.75,5.28,79-2.85,108.77,.88c18.98,2.38,35.72,10.14,50.04,22.82,18.27,16.18,29.03,36.41,32.06,60.69,.16,1.3-.1,2.7,.68,3.89v1.5c-.6,.37-.44,.75,0,1.12v9.73c-.44,.37-.6,.75,0,1.12v1.87c-.51,.14-.35,.58-.39,.92-.43,3.97-.99,7.91-1.84,11.81-8.56,39.67-42.06,69.97-82.4,74.58-1.35,.15-2.82-.14-4.08,.66Zm-29.71-86.41c-21.6-15.57-22.32-43.2-8.06-59.59,15.12-17.38,40.86-19.04,57.63-3.76,8.6,7.83,13.19,17.65,13.29,29.24,.12,14.22-6,25.51-17.55,34,21.29,8.61,34.95,23.85,41.2,45.8,27.95-31.54,29.38-84.47-7.15-117.7C116.27,.22,60.58,4.86,30.11,42.52-.38,80.21,10.11,127.76,31.93,150.76c2.72-10.46,7.62-19.72,14.83-27.72,7.25-8.04,15.99-13.94,26.38-17.86Zm23.12,75.17c2.87-.2,6.36-.26,9.83-.7,16.1-2,30.39-8.22,43.02-18.35,.58-.47,.86-.86,.73-1.7-.43-2.77-.96-5.53-1.77-8.2-7.88-25.87-32.68-41.89-59.48-38.45-24.19,3.1-43.5,22.33-46.94,46.68-.12,.85,.15,1.22,.73,1.69,15.57,12.48,33.34,18.78,53.89,19.03Zm-.48-79.56c16.02-.07,29.02-13.05,29.08-29.03,.05-15.97-13.16-29.18-29.17-29.15-16.02,.03-29.25,13.33-29.08,29.24,.17,16.05,13.23,29,29.17,28.94Z"/><path class="cls-1" d="M191.55,90.9c-.44-.37-.6-.75,0-1.12v1.12Z"/><path class="cls-1" d="M191.55,101.76c-.6-.37-.44-.75,0-1.12v1.12Z"/><path class="cls-1" d="M89.74,191.59c.37-.6,.75-.44,1.12,0h-1.12Z"/><path class="cls-1" d="M100.59,191.59c.37-.44,.75-.6,1.12,0h-1.12Z"/></svg>