<?xml version="1.0" encoding="UTF-8"?><svg id="Capa_1" xmlns="http://www.w3.org/2000/svg" viewBox="0 0 204.68 204.67"><defs><style>.cls-1{fill:#fff;}</style></defs><path class="cls-1" d="M189.08,204.67H14.79c-.15-.51-.63-.4-.98-.5-6.8-1.89-11.23-6.19-13.23-12.97-.1-.34-.04-.83-.58-.92V14.4c.62-.13,.52-.72,.65-1.11C3.34,4.84,9.83,0,18.65,0c55.82,0,111.64,0,167.45,0,1.74,0,3.45,.17,5.13,.61,8.21,2.17,13.42,9.24,13.43,18.29V176.75c0,3.46,.05,6.93-.02,10.39-.16,7.5-5.15,14.2-12.22,16.61-1.1,.37-2.33,.24-3.34,.91h0ZM102.37,108.73c-29.44,0-58.88,.01-88.31-.03-1.55,0-2.11,.21-2.11,1.98,.07,25.04,.05,50.08,.05,75.12,0,4.52,2.36,6.88,6.89,6.88H185.73c4.64,0,6.95-2.34,6.95-7.01,0-24.97-.02-49.95,.04-74.92,0-1.65-.37-2.05-2.04-2.05-29.44,.06-58.88,.04-88.31,.04h0Zm-.15-12c29.5,0,59.01,0,88.51,.03,1.46,0,1.99-.23,1.99-1.88-.06-25.31-.04-50.62-.05-75.92,0-4.65-2.33-6.96-7-6.96H19.03c-4.78,0-7.04,2.29-7.04,7.12,0,25.17,.02,50.35-.05,75.52,0,1.77,.42,2.14,2.15,2.14,29.37-.06,58.74-.04,88.12-.04h0Z"/><path class="cls-1" d="M132.32,150.7c0,9.39-.04,18.79,.04,28.18,0,1.49-.35,1.84-1.84,1.84-18.79-.06-37.57-.06-56.36,0-1.49,0-1.84-.34-1.84-1.84,.06-18.79,.06-37.57,0-56.36,0-1.49,.34-1.84,1.84-1.84,18.79,.06,37.57,.06,56.36,0,1.49,0,1.85,.34,1.84,1.84-.08,9.39-.04,18.79-.04,28.18h0Zm-29.96-17.99c-5.46,0-10.93,.04-16.39-.03-1.26-.02-1.66,.26-1.66,1.61,.06,10.92,.05,21.85,0,32.77,0,1.26,.26,1.66,1.61,1.66,10.92-.06,21.85-.05,32.77,0,1.26,0,1.66-.26,1.66-1.61-.06-10.92-.05-21.85,0-32.77,0-1.26-.26-1.68-1.61-1.66-5.46,.08-10.92,.03-16.39,.03h.01Z"/><path class="cls-1" d="M42.38,132.81c1.92,0,4.51-.76,5.59,.2,1.25,1.1,.3,3.74,.39,5.71,.08,1.92-.67,4.5,.3,5.59,1.11,1.25,3.75,.3,5.72,.39,1.92,.08,4.5-.67,5.59,.3,1.25,1.11,.33,3.75,.38,5.72,.05,1.92,.7,4.5-.27,5.59-1.11,1.25-3.75,.3-5.72,.39-1.92,.08-4.5-.67-5.59,.3-1.25,1.11-.3,3.75-.39,5.72-.08,1.92,.67,4.5-.3,5.59-1.11,1.25-3.75,.33-5.72,.38-1.92,.05-4.5,.7-5.59-.27-1.25-1.11-.3-3.75-.39-5.72-.08-1.92,.67-4.5-.3-5.59-1.11-1.25-3.75-.3-5.72-.39-1.92-.08-4.5,.67-5.59-.3-1.25-1.11-.33-3.75-.38-5.72-.05-1.92-.7-4.5,.27-5.59,1.11-1.25,3.75-.3,5.72-.39,1.92-.08,4.5,.67,5.59-.3,1.25-1.11,.3-3.75,.39-5.72,.08-1.92-.67-4.49,.3-5.59,1.12-1.27,3.75-.2,5.72-.3Z"/><path class="cls-1" d="M156.33,132.74c0-3.52,0-7.04-.05-10.56-.02-1.04,.12-1.53,1.36-1.49,3.12,.09,6.24,.07,9.36,0,1.05-.02,1.34,.28,1.32,1.32-.07,3.12-.09,6.24,0,9.36,.04,1.24-.46,1.37-1.49,1.35-3.52-.06-7.04-.04-10.56-.05l.06,.06h0Z"/><path class="cls-1" d="M156.27,132.68c0,3.52-.02,7.04,.05,10.56,.02,1.03-.11,1.54-1.35,1.5-3.12-.09-6.24-.07-9.36,0-1.04,.02-1.35-.27-1.32-1.32,.07-3.12,.09-6.24,0-9.36-.04-1.24,.46-1.37,1.49-1.35,3.52,.06,7.04,.04,10.56,.05l-.06-.06v-.02Z"/><path class="cls-1" d="M168.32,168.72c0-3.52,0-7.04-.05-10.56-.02-1.04,.12-1.53,1.36-1.49,3.12,.09,6.24,.07,9.36,0,1.05-.02,1.34,.28,1.32,1.32-.07,3.12-.09,6.24,0,9.36,.04,1.24-.46,1.37-1.49,1.35-3.52-.06-7.04-.04-10.56-.05l.06,.06h0Z"/><path class="cls-1" d="M168.26,168.66c0,3.52-.02,7.04,.05,10.56,.02,1.03-.11,1.54-1.35,1.5-3.12-.09-6.24-.07-9.36,0-1.04,.02-1.35-.27-1.32-1.32,.07-3.12,.09-6.24,0-9.36-.04-1.24,.46-1.37,1.49-1.35,3.52,.06,7.04,.04,10.56,.05l-.06-.06v-.02Z"/><path class="cls-1" d="M102.33,24.79c21.32,0,42.64,.02,63.96-.04,1.66,0,2.05,.38,2.05,2.04-.07,18.65-.07,37.31,0,55.96,0,1.66-.38,2.04-2.04,2.04-42.64-.05-85.27-.05-127.91,0-1.66,0-2.05-.38-2.05-2.04,.07-18.65,.07-37.31,0-55.96,0-1.66,.38-2.05,2.04-2.04,21.32,.06,42.64,.04,63.96,.04h-.01Zm0,11.99c-17.39,0-34.78,.02-52.16-.04-1.49,0-1.85,.35-1.84,1.84,.07,10.79,.07,21.58,0,32.38,0,1.5,.36,1.84,1.84,1.83,34.78-.05,69.55-.05,104.33,0,1.49,0,1.85-.35,1.84-1.84-.07-10.72-.08-21.45,0-32.18,0-1.67-.39-2.05-2.05-2.04-17.32,.07-34.64,.04-51.96,.04h0Z"/></svg>