<?xml version="1.0" encoding="UTF-8"?><svg id="Capa_1" xmlns="http://www.w3.org/2000/svg" viewBox="0 0 261.29 261.28"><defs><style>.cls-1{fill:#fff;}</style></defs><path class="cls-1" d="M69.39,83.96H235.89c15.76,0,25.4,9.63,25.4,25.38v107.56c0,13.68-5.9,21.48-19.12,25.09-1.29,.35-1.63,1.23-2.1,2.15-2.23,4.41-4.53,8.79-6.62,13.27-1.27,2.71-3.11,3.94-6.14,3.87-5.34-.13-10.69-.13-16.03,0-3.02,.08-4.88-1.14-6.14-3.86-1.95-4.22-4.23-8.28-6.18-12.5-.79-1.71-1.67-2.39-3.67-2.39-43.15,.07-86.29,.06-129.44,.02-1.66,0-2.61,.4-3.35,1.99-2.08,4.48-4.39,8.86-6.55,13.3-1.14,2.34-2.86,3.48-5.53,3.44-5.63-.09-11.27-.08-16.91,0-2.67,.04-4.36-1.13-5.5-3.48-2.19-4.53-4.5-9.01-6.71-13.54-.63-1.29-1.33-2.02-2.92-2.37C7.5,239.51,.05,230.27,.04,219.08,0,181.86-.02,144.65,.04,107.43c.02-13.23,10.25-23.36,23.5-23.45,10.01-.07,20.02-.06,30.03,.02,1.88,.02,3.21-.51,4.55-1.87,22.84-22.92,45.72-45.8,68.64-68.64,1.21-1.2,1.65-2.34,1.59-4.04C128.16,4.07,132.28-.06,137.56,0c5.21,.06,9.46,4.49,9.23,9.63-.24,5.31-4.52,9.22-9.88,8.83-1.3-.09-2.15,.12-3.06,1.04-21.28,21.32-42.59,42.61-64.45,64.46h0Zm61.11,149.29h106.13c9.5,0,15.32-5.75,15.32-15.16,0-36.54,0-73.08,0-109.62,0-9.44-5.8-15.16-15.31-15.16H24.66c-9.64,0-15.32,5.73-15.32,15.45v109.04c0,9.84,5.68,15.46,15.6,15.46h105.56Zm-99.49,9.43c1.4,2.85,2.75,5.58,4.08,8.32,.34,.7,.86,.93,1.63,.92,3.49-.03,6.97-.03,10.46,0,.87,0,1.43-.23,1.83-1.06,1.28-2.68,2.62-5.32,4.04-8.18,0,0-22.04,0-22.04,0Zm177.24,0c1.41,2.82,2.7,5.29,3.88,7.81,.47,1,1.01,1.47,2.18,1.45,3.39-.07,6.78-.05,10.17,0,.87,0,1.43-.24,1.82-1.07,1.27-2.68,2.62-5.32,4.03-8.17h-22.08Z"/><path class="cls-1" d="M130.5,139.95c-30.9,0-61.8,.03-92.7,0-11.12,0-19.46-8.6-19.09-19.46,.32-9.39,8.1-17.31,17.51-17.81,.68-.04,1.36-.03,2.04-.03H223.09c10.74,0,19.02,7.5,19.52,17.57,.53,10.85-7.8,19.68-18.82,19.73-17.01,.07-34.01,.02-51.02,.02h-42.27Zm38.64-28c-18.26,0-36.53,.03-54.79-.04-1.87,0-2.46,.43-2.4,2.37,.15,4.56,.17,9.13,0,13.69-.09,2.15,.45,2.71,2.66,2.7,21.37-.1,42.74-.06,64.11-.06,14.86,0,29.73,0,44.59,0,4.5,0,7.96-2.27,9.38-6.04,2.38-6.31-2.23-12.59-9.35-12.6-18.07-.03-36.14-.01-54.21-.01h0Zm-100.14-.01c-10.49,0-20.98-.04-31.47,.02-5.43,.03-9.51,4.13-9.51,9.33s4.04,9.27,9.25,9.29c21.17,.06,42.34,0,63.51,.07,1.57,0,1.93-.47,1.91-1.96-.09-4.76-.15-9.52,.02-14.27,.08-2.08-.53-2.54-2.55-2.52-10.39,.11-20.78,.05-31.17,.05h.01Z"/><path class="cls-1" d="M84,186.82c-.1,15.36-12.8,27.86-28.22,27.76-15.36-.1-27.86-12.81-27.76-28.22,.1-15.36,12.81-27.86,28.22-27.76,15.37,.1,27.86,12.79,27.76,28.21h0Zm-28.02,18.44c10.29,0,18.7-8.4,18.68-18.7-.02-10.18-8.32-18.53-18.48-18.61-10.31-.07-18.78,8.28-18.83,18.55-.04,10.29,8.35,18.74,18.62,18.76h0Z"/><path class="cls-1" d="M163.62,149.28h62.94c.87,0,1.77-.09,2.62,.06,2.51,.45,4.04,1.98,4.07,4.55,.04,2.58-1.47,4.15-3.96,4.65-.94,.19-1.94,.08-2.91,.08H99.63c-4.15,0-6.35-1.68-6.29-4.75,.06-2.99,2.18-4.57,6.17-4.57h64.1v-.02Z"/><path class="cls-1" d="M163.3,167.94h62.94c.78,0,1.56-.04,2.33,0,2.78,.18,4.66,2.02,4.71,4.57,.05,2.64-1.91,4.57-4.84,4.74-.58,.03-1.17,0-1.75,0H99.94c-.87,0-1.77,.1-2.62-.08-2.49-.51-3.99-2.07-3.95-4.65,.04-2.58,1.57-4.1,4.07-4.54,.85-.15,1.74-.06,2.62-.06h63.24Z"/><path class="cls-1" d="M163.65,186.6h62.94c.87,0,1.77-.09,2.62,.06,2.51,.46,4.02,2,4.04,4.57,.02,2.58-1.49,4.13-3.98,4.62-.84,.17-1.74,.07-2.62,.07H99.9c-.68,0-1.36,.04-2.04-.02-2.71-.24-4.57-2.22-4.51-4.76,.06-2.42,1.87-4.29,4.45-4.52,.87-.08,1.75-.03,2.62-.03h63.23Z"/><path class="cls-1" d="M163.3,205.26h62.94c.87,0,1.75-.05,2.62,.03,2.57,.24,4.38,2.12,4.43,4.54,.05,2.54-1.82,4.5-4.54,4.73-.68,.06-1.36,.02-2.04,.02H99.96c-.87,0-1.77,.1-2.62-.08-2.49-.51-3.99-2.06-3.96-4.65,.04-2.58,1.56-4.1,4.07-4.55,.85-.15,1.74-.06,2.62-.06h63.23v.02Z"/></svg>